<?xml version="1.0" standalone="no"?>
<!DOCTYPE svg PUBLIC "-//W3C//DTD SVG 20010904//EN"
 "http://www.w3.org/TR/2001/REC-SVG-20010904/DTD/svg10.dtd">
<svg version="1.0" xmlns="http://www.w3.org/2000/svg"
 width="1701.000000pt" height="1701.000000pt" viewBox="0 0 1701.000000 1701.000000"
 preserveAspectRatio="xMidYMid meet">
<metadata>
Created by potrace 1.14, written by Peter Selinger 2001-2017
</metadata>
<g transform="translate(0.000000,1701.000000) scale(0.100000,-0.100000)"
fill="#000000" stroke="none">
<path d="M8590 15998 c0 -21 -1 -21 -13 -3 -11 14 -16 15 -22 5 -6 -9 -4 -11
5 -5 9 5 11 4 6 -3 -5 -9 -13 -9 -27 -2 -14 8 -19 7 -19 -2 0 -10 -2 -10 -9 1
-6 9 -10 10 -16 2 -5 -9 -10 -9 -21 0 -12 10 -13 9 -9 -4 4 -8 1 -18 -6 -23
-8 -5 -10 -3 -4 7 8 12 6 12 -8 0 -9 -7 -14 -18 -10 -24 3 -6 1 -7 -6 -3 -6 4
-9 11 -6 16 7 11 -22 7 -32 -5 -4 -4 -2 -5 6 0 10 6 12 4 6 -4 -4 -7 -16 -11
-26 -8 -12 3 -24 -4 -34 -20 -12 -17 -23 -23 -37 -20 -15 4 -18 2 -13 -11 5
-14 3 -13 -14 2 -18 16 -19 16 -17 -1 0 -10 -5 -17 -13 -15 -7 1 -19 -3 -27
-9 -11 -9 -14 -8 -14 2 -1 10 -4 8 -11 -4 -5 -9 -7 -22 -4 -27 3 -6 -1 -7 -9
-4 -9 3 -13 11 -9 17 3 6 1 7 -6 3 -6 -4 -8 -12 -5 -18 5 -8 1 -9 -10 -5 -10
4 -19 1 -23 -8 -3 -9 -10 -15 -17 -14 -23 3 -36 -1 -36 -12 0 -8 6 -7 18 2 16
12 16 12 0 -6 -17 -19 -18 -19 -34 0 -8 11 -12 14 -9 7 4 -8 2 -12 -6 -11 -16
3 -69 -18 -69 -26 0 -4 5 -3 12 1 7 4 8 3 4 -5 -6 -9 -11 -9 -22 0 -9 7 -14 8
-13 3 4 -21 -2 -26 -18 -13 -9 8 -14 9 -10 3 4 -7 0 -15 -9 -18 -8 -3 -13 -10
-10 -14 3 -5 -6 -7 -19 -4 -16 3 -25 0 -25 -9 0 -7 -3 -10 -6 -6 -8 8 -34 -18
-34 -33 0 -6 -4 -8 -10 -5 -5 3 -10 -1 -10 -9 0 -10 -6 -13 -17 -9 -11 4 -14
3 -9 -5 4 -7 2 -12 -3 -12 -6 0 -10 -6 -8 -12 1 -7 -6 -12 -15 -12 -10 1 -15
-2 -12 -7 3 -5 0 -9 -5 -9 -6 0 -10 -6 -8 -12 1 -7 -3 -12 -10 -11 -6 2 -15
-6 -18 -17 -4 -11 -11 -18 -16 -15 -5 4 -9 -1 -9 -10 0 -9 -4 -14 -9 -10 -12
7 -53 -44 -45 -56 3 -5 2 -9 -3 -8 -23 4 -35 -2 -29 -16 3 -8 2 -14 -2 -14
-20 3 -32 -3 -32 -16 0 -8 -6 -14 -12 -12 -8 1 -14 -11 -16 -30 -2 -21 -10
-34 -23 -38 -10 -4 -17 -11 -14 -16 4 -5 -1 -9 -10 -9 -10 0 -13 -5 -9 -12 5
-8 2 -9 -12 -4 -10 4 -15 4 -11 0 4 -4 0 -18 -8 -31 -9 -13 -12 -23 -9 -23 4
0 -10 -13 -31 -30 -21 -16 -34 -30 -30 -30 5 0 18 8 29 18 20 16 20 16 6 -2
-8 -10 -24 -22 -37 -27 -13 -5 -23 -13 -23 -19 0 -6 6 -8 13 -5 6 4 3 -1 -7
-9 -11 -9 -16 -16 -11 -16 4 0 -2 -8 -13 -19 -12 -10 -19 -21 -15 -25 3 -3 1
-6 -5 -6 -7 0 -26 -15 -43 -32 -17 -18 -36 -32 -42 -30 -6 2 -4 -4 3 -13 11
-13 10 -14 -5 -9 -13 5 -16 4 -10 -5 6 -10 3 -11 -13 -2 -14 8 -23 8 -27 1 -5
-8 -11 -8 -20 0 -10 9 -16 6 -25 -10 -6 -11 -15 -18 -20 -15 -4 3 -11 -1 -13
-7 -3 -7 -6 -8 -6 -3 -1 7 -16 9 -37 7 -20 -3 -34 -1 -31 4 3 5 -1 15 -9 22
-11 10 -14 10 -14 0 0 -9 -3 -9 -10 2 -9 13 -10 13 -10 0 0 -12 -2 -13 -9 -1
-7 11 -9 11 -14 0 -4 -10 -6 -10 -6 -1 -1 6 -8 12 -17 12 -8 0 -13 4 -10 9 8
12 -31 44 -43 36 -6 -3 -11 -1 -11 4 0 6 -9 11 -21 11 -11 0 -17 5 -14 10 3 6
1 10 -5 10 -6 0 -8 5 -4 12 4 7 3 8 -5 4 -6 -4 -8 -12 -5 -18 4 -6 -3 -5 -15
2 -12 6 -25 18 -28 26 -3 8 -12 14 -20 14 -8 0 -11 5 -8 10 6 9 -7 14 -27 11
-4 0 -4 7 -1 16 4 11 3 14 -5 9 -7 -4 -12 -2 -12 4 0 8 -6 8 -21 -1 -18 -9
-20 -8 -15 9 5 16 3 20 -11 18 -25 -4 -63 15 -63 31 0 9 -5 11 -12 6 -19 -11
-39 -13 -32 -2 3 5 -2 16 -10 25 -9 8 -16 12 -16 7 0 -4 -11 -8 -24 -8 -13 0
-24 2 -24 5 2 21 -5 28 -22 25 -15 -3 -20 2 -20 18 0 16 -3 18 -9 8 -6 -9 -10
-10 -12 -2 -2 6 -14 13 -27 16 -13 2 -20 0 -17 -6 4 -5 1 -9 -4 -9 -6 0 -11 5
-11 11 0 6 -7 8 -16 5 -8 -3 -13 -2 -11 2 3 4 -1 13 -9 20 -11 10 -14 10 -14
0 0 -10 -2 -10 -9 1 -6 10 -10 10 -16 1 -5 -9 -15 -4 -32 16 -13 16 -22 23
-18 17 11 -22 -14 -14 -37 12 -16 19 -24 22 -35 14 -9 -9 -13 -8 -13 0 0 9 -5
9 -20 1 -13 -7 -20 -7 -20 -1 0 6 -6 8 -13 5 -7 -2 -21 3 -32 12 -11 8 -13 12
-5 8 8 -4 11 -3 7 1 -4 5 -33 8 -63 7 -44 -1 -55 1 -51 13 4 9 0 12 -14 10
-10 -2 -19 1 -19 7 0 6 -7 5 -17 -3 -15 -12 -16 -12 -8 1 8 13 7 13 -8 1 -9
-7 -17 -9 -17 -4 0 5 -7 10 -15 10 -8 0 -15 -5 -15 -11 0 -6 -5 -4 -10 4 -5 8
-10 10 -10 4 0 -11 -35 -12 -46 -1 -4 4 -14 1 -22 -6 -10 -7 -13 -8 -9 -1 4 7
-2 14 -14 17 -18 5 -18 3 -7 -11 12 -15 11 -16 -4 -3 -10 7 -18 10 -18 6 0 -4
-7 -2 -15 5 -8 7 -13 16 -10 19 2 4 -2 8 -10 8 -8 0 -15 -3 -15 -7 0 -7 -76
-3 -97 5 -7 2 -13 0 -13 -5 0 -5 -13 -5 -30 0 -21 6 -30 5 -30 -3 0 -8 -3 -7
-9 2 -7 11 -9 11 -14 0 -4 -12 -7 -11 -16 1 -9 12 -11 12 -11 1 0 -11 -5 -10
-20 4 -16 15 -19 15 -15 3 5 -13 -1 -14 -40 -8 -30 5 -45 3 -45 -4 0 -7 -3 -7
-8 -1 -11 15 -42 15 -42 -1 0 -20 -18 -17 -23 4 -4 16 -5 16 -6 0 -1 -11 -9
-18 -22 -18 -11 0 -18 -4 -15 -8 2 -4 -4 -8 -15 -8 -10 0 -19 5 -19 11 0 5 -5
3 -10 -5 -6 -10 -10 -11 -10 -2 0 6 -5 12 -11 12 -5 0 -8 -4 -5 -8 3 -5 -1 -9
-9 -9 -8 0 -15 5 -15 10 0 5 -7 4 -15 -3 -11 -9 -15 -9 -15 -1 0 9 -5 9 -21 0
-12 -6 -19 -7 -16 -2 4 5 0 10 -8 10 -8 0 -11 -5 -8 -10 4 -6 0 -8 -10 -4 -9
3 -18 -1 -21 -10 -4 -8 -13 -13 -21 -9 -8 3 -15 0 -15 -7 0 -8 -4 -6 -10 3 -8
12 -10 12 -10 1 0 -10 -6 -10 -26 4 -15 9 -23 12 -20 6 4 -6 0 -14 -9 -17 -14
-6 -14 -9 -3 -16 9 -7 8 -8 -6 -4 -11 4 -23 1 -27 -6 -6 -9 -11 -9 -22 1 -11
9 -17 9 -22 0 -6 -8 -10 -7 -16 2 -6 10 -9 10 -9 2 0 -6 -9 -10 -20 -8 -11 2
-18 0 -15 -6 10 -16 -5 -31 -20 -19 -9 8 -14 6 -19 -6 -4 -10 -13 -14 -25 -11
-14 3 -18 1 -14 -9 6 -17 -9 -18 -25 -2 -9 9 -12 9 -12 -2 0 -7 -3 -11 -6 -7
-8 8 -33 -16 -27 -25 2 -5 -7 -4 -21 2 -16 6 -26 6 -26 0 0 -5 -7 -6 -17 -3
-9 4 -14 2 -10 -3 3 -6 -3 -16 -15 -23 -16 -10 -19 -10 -12 1 5 9 2 8 -11 -2
-10 -8 -21 -15 -24 -15 -3 0 -5 -3 -4 -7 2 -5 -11 -8 -28 -8 -20 0 -28 -4 -23
-12 5 -8 2 -9 -9 -5 -10 3 -17 2 -17 -4 0 -5 -6 -9 -12 -8 -34 4 -41 0 -27
-18 12 -15 12 -16 -3 -10 -11 4 -18 2 -18 -6 0 -7 -3 -8 -8 -2 -9 12 -32 18
-31 7 3 -19 -2 -33 -11 -27 -6 3 -10 1 -10 -6 0 -9 -4 -9 -15 1 -12 10 -14 8
-10 -9 2 -11 1 -20 -3 -19 -4 1 -17 -1 -29 -6 -15 -5 -20 -12 -16 -24 6 -15 5
-15 -10 -3 -13 10 -17 10 -17 1 0 -10 -3 -10 -15 0 -12 10 -15 9 -16 -6 -1
-11 -1 -22 0 -26 0 -4 -7 -4 -16 -1 -12 5 -15 2 -10 -9 3 -10 0 -19 -9 -22
-10 -4 -13 -2 -8 7 4 6 -9 -5 -29 -26 -20 -21 -41 -35 -47 -32 -5 3 -10 1 -10
-5 0 -6 -5 -8 -12 -4 -8 5 -9 2 -5 -9 3 -9 3 -16 -1 -16 -20 3 -32 -3 -32 -16
0 -8 -7 -15 -15 -15 -17 0 -37 -34 -27 -45 4 -5 2 -5 -5 -2 -13 8 -46 -20 -38
-33 3 -4 -2 -10 -10 -13 -8 -4 -13 -1 -11 6 1 7 -2 2 -8 -11 -6 -13 -16 -20
-24 -17 -7 2 -11 1 -8 -3 2 -4 -2 -16 -10 -27 -8 -10 -14 -16 -14 -12 0 4 -8
-1 -18 -10 -11 -10 -17 -21 -15 -25 2 -5 -1 -8 -7 -8 -6 0 -9 -4 -6 -9 3 -5 0
-8 -7 -7 -6 0 -13 -3 -14 -8 -1 -4 -15 -17 -32 -27 -17 -10 -31 -26 -31 -34 0
-9 -4 -13 -10 -10 -5 3 -10 1 -10 -5 0 -6 -5 -8 -12 -4 -9 5 -9 2 1 -9 12 -15
11 -17 -8 -17 -12 0 -19 -4 -16 -10 3 -5 0 -10 -9 -10 -8 0 -20 -14 -28 -30
-7 -17 -18 -28 -25 -26 -7 3 -10 -3 -8 -14 2 -10 -3 -26 -11 -37 -9 -10 -13
-12 -9 -3 4 8 0 6 -9 -4 -8 -10 -13 -23 -10 -27 3 -5 -3 -6 -12 -2 -12 4 -15
3 -10 -5 4 -8 1 -12 -10 -12 -10 0 -14 -3 -11 -7 4 -3 -1 -12 -11 -20 -9 -8
-12 -12 -5 -9 6 4 15 2 18 -4 4 -6 3 -10 -2 -9 -18 3 -36 -1 -30 -7 3 -4 -2
-14 -11 -23 -11 -10 -12 -12 -2 -6 9 6 8 1 -4 -13 -11 -12 -25 -21 -32 -18 -9
3 -11 -1 -7 -11 5 -11 3 -14 -6 -8 -10 6 -11 3 -2 -14 8 -15 9 -21 1 -21 -6 0
-8 -5 -4 -12 5 -7 3 -8 -6 -3 -17 10 -32 -16 -18 -32 8 -11 7 -12 -7 -7 -13 5
-16 4 -11 -4 4 -7 2 -12 -4 -12 -6 0 -8 -4 -5 -10 3 -5 0 -10 -8 -10 -8 0 -21
-8 -28 -17 -13 -17 -13 -17 6 -3 19 14 19 14 6 -2 -7 -10 -20 -18 -28 -18 -8
0 -11 -4 -8 -10 3 -5 1 -10 -5 -10 -6 0 -9 -4 -6 -9 8 -12 -4 -42 -14 -36 -14
8 -43 -34 -37 -55 3 -11 0 -20 -5 -20 -6 0 -4 -8 3 -17 8 -9 10 -14 4 -12 -5
3 -18 -2 -27 -13 -10 -10 -13 -18 -7 -18 6 0 2 -12 -9 -27 -26 -39 -32 -59
-21 -70 7 -7 5 -16 -5 -26 -12 -12 -13 -17 -3 -20 7 -3 4 -6 -6 -6 -10 -1 -15
-5 -12 -11 3 -5 0 -10 -7 -10 -10 0 -10 -2 1 -9 10 -6 10 -10 1 -16 -6 -4 -9
-13 -6 -21 3 -8 -1 -14 -11 -14 -9 0 -14 -3 -11 -6 4 -3 2 -19 -2 -35 -6 -20
-5 -29 3 -29 7 0 6 -4 -3 -10 -13 -9 -13 -10 0 -10 13 0 13 -1 0 -10 -13 -9
-13 -10 0 -10 13 0 13 -1 0 -10 -9 -6 -11 -10 -3 -10 7 0 10 -7 7 -15 -4 -8
-10 -12 -15 -9 -5 3 -6 -2 -3 -10 3 -9 11 -13 17 -9 6 3 7 1 3 -6 -4 -6 -12
-8 -18 -5 -7 5 -9 0 -5 -15 4 -17 2 -20 -7 -12 -9 8 -13 7 -13 -4 0 -8 5 -15
11 -15 7 0 7 -3 1 -8 -13 -9 -17 -32 -6 -32 12 0 9 -33 -4 -42 -6 -5 -5 -8 3
-8 10 0 10 -5 1 -21 -6 -12 -7 -19 -2 -16 5 4 10 0 10 -8 0 -8 -5 -11 -10 -8
-6 4 -8 0 -4 -10 3 -10 2 -17 -3 -17 -6 0 -10 -7 -10 -15 0 -8 -5 -15 -11 -15
-5 0 -7 5 -3 12 4 7 3 8 -5 4 -8 -5 -9 -12 -2 -20 14 -17 20 -106 7 -106 -6 0
-4 -5 4 -10 13 -9 13 -10 0 -10 -13 0 -13 -1 0 -10 11 -7 11 -10 2 -10 -10 0
-10 -5 -2 -20 8 -15 8 -20 -2 -20 -9 0 -9 -3 2 -10 12 -8 12 -10 1 -10 -11 0
-11 -3 -1 -15 7 -9 8 -15 2 -15 -5 0 -8 -9 -5 -20 3 -13 0 -20 -8 -20 -11 0
-11 -2 0 -9 8 -5 16 -17 17 -25 1 -9 -2 -14 -7 -10 -5 3 -6 10 -3 16 5 7 2 8
-5 4 -7 -5 -10 -11 -7 -14 4 -3 -1 -16 -10 -30 -13 -20 -14 -26 -3 -33 11 -7
11 -9 -1 -9 -13 0 -13 -1 0 -10 13 -9 13 -10 0 -10 -13 0 -13 -1 0 -10 13 -9
13 -10 0 -10 -13 0 -13 -1 0 -10 13 -9 13 -10 0 -10 -13 0 -13 -1 0 -10 13 -9
13 -10 0 -10 -13 0 -13 -1 0 -10 13 -9 13 -10 0 -10 -13 0 -13 -1 0 -11 11 -8
12 -12 3 -16 -7 -2 -13 -9 -13 -14 0 -6 5 -7 11 -3 7 4 7 -1 -1 -16 -8 -15 -8
-20 -1 -16 6 4 11 3 11 -3 0 -5 -6 -12 -12 -14 -10 -4 -9 -8 2 -16 13 -10 13
-11 0 -11 -13 0 -13 -1 0 -10 13 -9 13 -10 0 -10 -13 0 -13 -1 0 -10 13 -9 13
-10 0 -10 -13 0 -13 -1 0 -10 13 -9 13 -10 0 -10 -13 0 -13 -1 0 -10 13 -8 11
-11 -7 -16 -13 -4 -20 -10 -17 -15 3 -5 0 -9 -5 -9 -6 0 -11 -5 -11 -11 0 -5
4 -7 10 -4 6 3 7 -1 4 -9 -3 -9 -10 -13 -15 -10 -5 3 -9 -2 -9 -11 0 -10 -5
-13 -12 -9 -10 6 -10 4 0 -8 10 -13 10 -17 -3 -22 -8 -3 -15 -13 -15 -21 0 -9
-4 -14 -9 -11 -8 6 -25 -30 -22 -47 1 -5 -8 -11 -19 -14 -11 -3 -18 -9 -15
-13 3 -5 -4 -6 -15 -3 -14 4 -20 1 -18 -8 2 -8 -3 -13 -9 -11 -7 1 -13 -4 -13
-10 0 -9 -4 -8 -10 2 -7 11 -10 11 -10 2 0 -8 -5 -10 -12 -6 -8 5 -9 2 -5 -9
3 -9 3 -16 -1 -16 -4 1 -9 0 -12 -1 -16 -6 -68 -5 -64 2 3 4 1 8 -5 8 -5 0
-12 -6 -14 -12 -4 -10 -8 -9 -16 2 -10 13 -11 13 -11 0 0 -13 -1 -13 -10 0 -9
13 -10 13 -10 0 0 -13 -1 -13 -10 0 -9 13 -10 13 -10 0 0 -13 -1 -13 -11 0 -8
11 -12 12 -16 3 -2 -7 -9 -13 -14 -13 -6 0 -7 5 -3 11 4 7 -1 7 -16 -1 -15 -8
-20 -8 -16 -1 4 6 3 11 -3 11 -5 0 -12 -6 -14 -12 -4 -10 -8 -9 -16 2 -10 13
-11 13 -11 0 0 -13 -1 -13 -10 0 -9 13 -10 13 -10 0 0 -13 -1 -13 -10 0 -9 13
-10 13 -10 0 0 -10 -3 -11 -8 -3 -5 8 -11 8 -24 -1 -10 -7 -15 -16 -11 -20 4
-4 -1 -4 -11 0 -12 5 -17 4 -13 -3 3 -5 0 -10 -8 -10 -8 0 -12 4 -9 9 3 4 -6
4 -19 -1 -13 -5 -30 -5 -38 -1 -8 6 -16 4 -21 -3 -6 -9 -8 -9 -8 0 0 13 -41 5
-52 -11 -5 -7 -8 -7 -8 2 0 7 -5 10 -10 7 -6 -4 -8 -10 -5 -15 3 -5 1 -11 -5
-15 -5 -3 -10 -1 -10 6 0 9 -3 9 -14 0 -11 -9 -16 -9 -21 0 -6 8 -10 7 -16 -2
-7 -12 -9 -12 -9 0 0 11 -3 11 -15 1 -12 -10 -15 -10 -15 1 0 9 -3 10 -8 4
-10 -14 -32 -17 -32 -4 0 5 -5 7 -10 4 -6 -4 -7 -12 -3 -18 4 -8 1 -7 -9 1
-13 10 -18 10 -24 1 -5 -8 -3 -9 7 -4 12 8 12 6 0 -9 -11 -13 -16 -14 -22 -4
-7 10 -9 10 -9 -2 0 -11 -3 -11 -12 -2 -8 8 -16 6 -30 -11 -21 -24 -39 -28
-50 -12 -5 6 -8 4 -8 -5 0 -13 -1 -13 -11 0 -8 11 -12 12 -16 3 -2 -7 -9 -13
-14 -13 -6 0 -8 4 -5 9 4 5 -3 7 -14 4 -10 -3 -18 -10 -17 -15 1 -6 -4 -13
-12 -16 -9 -3 -11 0 -7 9 4 8 2 7 -6 -2 -7 -9 -18 -14 -25 -12 -6 2 -15 -1
-19 -8 -5 -8 -3 -10 7 -5 8 4 5 0 -6 -9 -14 -11 -21 -12 -24 -4 -2 7 -10 3
-20 -10 -19 -25 -50 -33 -68 -18 -9 6 -13 6 -13 -3 0 -7 -7 -10 -14 -7 -10 4
-13 1 -10 -8 5 -12 -26 -28 -58 -30 -3 0 -10 -4 -15 -9 -4 -5 -3 -6 4 -2 6 3
14 2 18 -3 3 -6 -4 -8 -17 -6 -35 7 -58 -3 -51 -23 6 -15 5 -15 -10 -3 -11 9
-17 10 -17 2 0 -6 -3 -10 -7 -10 -21 3 -33 -2 -27 -13 5 -8 0 -9 -14 -6 -16 5
-22 1 -23 -10 0 -10 -3 -12 -5 -5 -4 8 -11 7 -25 -5 -10 -9 -19 -20 -19 -24 0
-4 -12 -19 -26 -34 -15 -14 -24 -19 -21 -10 6 15 4 15 -18 0 -14 -9 -25 -21
-25 -26 0 -6 -7 -8 -14 -5 -11 4 -13 1 -9 -10 4 -10 2 -14 -4 -10 -6 4 -13 4
-15 0 -1 -5 -20 -17 -40 -27 -21 -11 -38 -25 -38 -33 0 -8 -4 -11 -10 -8 -5 3
-10 1 -10 -5 0 -6 -4 -8 -10 -5 -5 3 -10 -2 -10 -12 0 -15 -2 -16 -10 -3 -8
13 -10 12 -10 -4 0 -12 -5 -16 -15 -12 -13 4 -14 2 -5 -14 6 -11 7 -20 3 -19
-20 3 -34 -2 -28 -11 4 -6 -5 -10 -20 -10 -14 0 -24 -3 -22 -7 4 -10 -40 -53
-47 -45 -3 3 -6 -3 -6 -13 0 -10 -3 -15 -7 -12 -3 4 -15 -7 -25 -24 -11 -17
-22 -28 -25 -25 -9 8 -43 -24 -43 -40 0 -7 -9 -16 -20 -19 -11 -4 -18 -10 -15
-15 3 -5 -4 -11 -15 -15 -11 -4 -18 -11 -15 -16 4 -5 -1 -9 -10 -9 -9 0 -13
-4 -10 -10 3 -5 2 -10 -4 -10 -5 0 -8 -9 -6 -20 2 -11 0 -18 -6 -15 -5 4 -13
-3 -17 -14 -4 -11 -11 -21 -17 -23 -5 -2 -9 -6 -7 -10 1 -5 -5 -8 -13 -8 -9 0
-12 -6 -8 -17 4 -11 3 -14 -5 -9 -7 4 -15 1 -18 -8 -3 -9 -10 -14 -14 -11 -4
3 -10 -2 -14 -10 -3 -8 0 -15 7 -15 8 0 9 -3 1 -8 -6 -4 -13 -15 -17 -25 -4
-11 -12 -15 -19 -11 -9 5 -9 3 1 -9 9 -12 10 -17 2 -17 -7 0 -9 -5 -5 -12 6
-9 3 -9 -9 0 -14 12 -16 11 -12 -8 2 -12 -2 -23 -10 -26 -8 -3 -17 -19 -20
-36 -5 -20 -11 -28 -21 -24 -8 3 -13 2 -10 -3 3 -4 -2 -17 -10 -27 -9 -10 -12
-12 -8 -4 5 10 4 12 -3 5 -15 -14 -25 -87 -11 -79 7 4 8 2 4 -4 -4 -6 -14 -8
-23 -5 -10 4 -14 2 -9 -5 3 -6 2 -13 -4 -17 -6 -4 -7 -12 -3 -18 4 -7 0 -6
-10 2 -15 12 -17 10 -13 -18 2 -17 -1 -31 -5 -31 -5 0 -9 -5 -9 -11 0 -5 6 -7
12 -4 7 4 5 0 -4 -8 -10 -8 -15 -17 -11 -20 3 -4 -2 -7 -13 -7 -16 0 -17 -2
-4 -10 10 -6 11 -10 2 -10 -6 0 -11 -3 -11 -7 3 -20 -2 -34 -10 -28 -5 3 -13
0 -17 -6 -4 -8 -3 -9 4 -5 7 4 12 2 12 -3 0 -6 -4 -11 -8 -11 -5 0 -6 -14 -4
-31 3 -18 1 -29 -4 -26 -5 2 -15 -1 -22 -9 -8 -9 -9 -14 -2 -14 7 0 7 -7 -1
-21 -8 -17 -8 -23 1 -29 9 -6 6 -10 -9 -15 -12 -3 -19 -11 -16 -16 4 -5 0 -9
-7 -9 -9 0 -9 -3 2 -10 12 -7 12 -10 1 -10 -8 0 -11 -6 -7 -16 3 -8 2 -12 -3
-9 -5 3 -13 0 -17 -7 -11 -17 -11 -58 -1 -58 5 0 3 -8 -4 -17 -12 -15 -12 -16
1 -8 8 4 4 -4 -9 -18 -14 -15 -19 -27 -13 -27 7 0 12 5 12 10 0 6 6 10 13 10
6 0 0 -11 -15 -25 -18 -15 -23 -25 -15 -28 8 -4 8 -6 -2 -6 -11 -1 -11 -4 0
-18 10 -12 11 -15 1 -9 -9 6 -11 1 -8 -18 3 -18 1 -23 -10 -19 -8 3 -14 1 -15
-3 0 -5 -2 -17 -4 -27 -2 -9 1 -14 7 -11 6 4 5 -2 -1 -15 -7 -11 -8 -21 -4
-21 5 0 8 -13 8 -29 1 -20 -3 -27 -12 -24 -9 4 -11 0 -6 -13 4 -11 3 -15 -4
-11 -6 4 -13 0 -17 -8 -3 -8 0 -15 7 -15 8 0 8 -3 -2 -9 -11 -7 -11 -9 0 -14
11 -4 11 -6 1 -6 -10 -1 -10 -6 -2 -21 7 -14 7 -20 0 -20 -5 0 -10 -5 -10 -11
0 -5 5 -7 12 -3 7 5 8 3 4 -5 -5 -7 -14 -10 -21 -8 -8 4 -11 -3 -9 -19 1 -13
-2 -24 -7 -24 -6 0 -6 -8 1 -19 7 -14 7 -22 -1 -27 -8 -4 -7 -9 2 -15 11 -7
11 -9 -1 -9 -13 0 -13 -1 0 -10 13 -9 13 -10 0 -10 -13 0 -13 -1 0 -10 13 -9
13 -10 0 -10 -13 0 -13 -1 0 -10 13 -9 13 -10 0 -10 -13 0 -13 -2 -1 -9 12 -8
12 -12 2 -25 -7 -9 -11 -25 -8 -36 3 -11 1 -18 -4 -14 -5 3 -9 0 -9 -6 0 -6
-4 -8 -10 -5 -5 3 -10 1 -10 -4 0 -6 6 -11 13 -11 8 0 7 -4 -3 -10 -13 -9 -13
-10 0 -10 13 0 13 -1 0 -10 -13 -9 -13 -10 0 -10 13 0 13 -1 0 -10 -13 -9 -13
-10 0 -10 12 0 13 -2 1 -9 -11 -7 -10 -11 5 -20 16 -9 16 -10 3 -11 -21 0 -20
-31 1 -47 13 -10 13 -12 -3 -19 -15 -5 -16 -9 -5 -15 10 -7 10 -9 0 -9 -10 0
-10 -5 -2 -20 8 -15 8 -20 -2 -20 -9 0 -9 -3 2 -10 13 -9 13 -10 0 -10 -13 0
-13 -1 0 -10 13 -9 13 -10 0 -10 -12 0 -12 -2 -2 -9 11 -6 10 -10 -5 -15 -17
-7 -16 -9 6 -27 16 -13 18 -19 8 -19 -10 0 -13 -9 -11 -32 2 -18 6 -39 9 -46
3 -7 0 -10 -5 -7 -12 8 -12 8 -1 -33 5 -17 6 -32 2 -32 -11 0 -8 -44 4 -52 6
-5 5 -8 -3 -8 -7 0 -10 -5 -7 -11 4 -6 7 -26 7 -45 0 -19 4 -34 9 -34 5 0 9
-7 9 -16 0 -9 5 -12 13 -8 9 6 9 5 0 -7 -7 -9 -9 -20 -3 -29 5 -9 5 -19 -2
-27 -8 -10 -7 -13 3 -13 11 0 11 -2 -1 -10 -13 -9 -13 -10 0 -10 13 0 13 -1 0
-10 -13 -9 -13 -10 0 -10 13 0 13 -1 0 -10 -13 -9 -13 -10 0 -10 13 0 13 -1 0
-10 -13 -9 -13 -10 0 -10 13 0 13 -1 0 -10 -12 -8 -12 -10 -1 -10 11 0 11 -3
0 -17 -10 -11 -10 -14 -1 -9 7 4 12 2 12 -4 0 -6 5 -8 10 -5 6 4 10 3 9 -2 -1
-4 0 -12 1 -18 1 -5 1 -24 0 -41 -1 -21 5 -37 17 -45 15 -12 21 -30 13 -49 -7
-19 -7 -40 1 -40 5 0 9 -7 9 -15 0 -8 5 -15 10 -15 6 0 10 -11 10 -25 0 -22 9
-30 33 -26 4 1 3 -9 -4 -21 -8 -16 -9 -23 -1 -26 7 -2 8 -11 2 -27 -7 -20 -6
-22 11 -18 18 5 24 -4 20 -35 -2 -13 24 -44 31 -37 2 2 10 -5 17 -17 7 -11 8
-17 2 -14 -7 4 -8 1 -5 -8 3 -9 10 -13 15 -10 5 3 6 -2 3 -10 -4 -11 0 -16 11
-16 9 0 13 -4 10 -10 -3 -5 -1 -10 6 -10 8 0 8 -4 1 -12 -7 -9 -6 -17 4 -26 8
-7 14 -9 14 -5 0 4 5 0 11 -10 5 -9 7 -22 4 -27 -3 -6 -2 -10 4 -10 5 0 12 6
15 13 4 6 4 2 2 -10 -2 -13 0 -23 5 -23 5 0 9 -7 9 -16 0 -8 4 -12 10 -9 6 3
10 -5 10 -18 0 -14 7 -28 16 -31 23 -9 26 -8 18 7 -4 6 5 1 19 -12 15 -14 27
-30 27 -38 0 -12 12 -17 32 -14 4 0 4 -7 1 -16 -5 -13 -2 -15 12 -10 15 6 16
5 5 -8 -10 -12 -10 -15 4 -15 10 0 14 -4 11 -10 -3 -5 -1 -10 5 -10 6 0 9 -4
6 -8 -2 -4 -1 -14 4 -22 6 -10 12 -11 22 -3 10 9 16 6 25 -13 6 -13 7 -22 2
-18 -5 3 -6 -2 -3 -10 3 -9 10 -13 15 -10 5 3 9 0 9 -6 0 -6 5 -8 10 -5 15 9
60 -22 60 -41 0 -8 4 -12 10 -9 5 3 10 0 10 -7 0 -9 3 -9 10 2 7 11 10 11 10
2 0 -7 5 -10 10 -7 6 3 10 -1 10 -9 0 -9 7 -16 16 -16 22 0 48 -27 31 -33 -7
-3 -5 -6 5 -6 9 -1 20 -6 24 -13 5 -7 2 -8 -7 -3 -8 5 -11 4 -6 -1 10 -11 30
-12 37 -3 10 13 52 -11 46 -26 -4 -12 -2 -13 12 -7 11 6 26 4 42 -4 14 -8 19
-14 10 -14 -13 0 -13 -1 0 -10 9 -6 17 -5 22 3 6 9 8 8 8 -2 0 -8 7 -11 20 -8
10 3 19 2 18 -2 -2 -21 4 -32 16 -28 10 4 13 1 9 -9 -3 -9 2 -14 15 -14 11 0
22 3 25 8 2 4 2 1 1 -5 -2 -7 4 -13 12 -13 9 0 12 -5 8 -12 -4 -6 -3 -8 4 -5
5 4 21 3 34 -2 12 -6 17 -10 11 -10 -7 -1 -13 -6 -13 -12 0 -5 5 -7 10 -4 6 3
10 1 10 -5 0 -6 5 -8 12 -4 8 5 9 0 5 -15 -4 -18 -2 -21 11 -16 9 3 13 3 10
-1 -4 -3 4 -24 18 -46 14 -22 21 -37 15 -34 -6 4 -11 3 -11 -3 0 -5 9 -13 21
-16 16 -5 18 -10 8 -21 -6 -8 -8 -14 -3 -14 5 0 10 -11 10 -25 1 -13 9 -32 18
-40 19 -20 20 -26 3 -19 -8 3 -14 -2 -14 -10 0 -8 4 -13 9 -10 4 3 8 0 8 -5 0
-6 -6 -11 -12 -11 -8 0 -9 -3 -3 -8 16 -12 17 -35 1 -29 -8 3 -17 -1 -20 -9
-3 -9 -1 -12 4 -9 14 9 12 -9 -2 -23 -9 -9 -9 -12 3 -12 11 0 11 -2 1 -9 -8
-4 -13 -11 -13 -15 3 -19 0 -27 -8 -21 -5 3 -13 0 -17 -6 -4 -8 -3 -9 4 -5 7
4 12 2 12 -3 0 -6 -4 -11 -9 -11 -4 0 -6 -12 -3 -27 4 -22 2 -25 -12 -20 -9 4
-15 3 -12 -1 3 -5 -6 -20 -19 -34 -13 -14 -21 -29 -18 -32 4 -3 2 -6 -4 -6 -5
0 -23 -12 -39 -26 -16 -15 -23 -23 -15 -19 10 6 12 4 7 -4 -6 -9 -12 -9 -24 1
-10 7 -14 8 -10 4 4 -5 2 -16 -5 -24 -10 -13 -9 -14 2 -7 10 5 12 4 7 -3 -4
-7 -14 -12 -23 -12 -9 0 -13 -6 -10 -14 4 -10 1 -13 -8 -10 -18 7 -38 -29 -23
-44 8 -8 4 -9 -13 -6 -19 5 -21 4 -9 -5 14 -10 7 -16 -13 -12 -5 1 -6 -2 -3
-7 3 -5 -2 -18 -10 -28 -9 -10 -12 -12 -8 -4 7 13 5 13 -9 1 -18 -15 -23 -26
-7 -16 6 3 10 1 10 -4 0 -6 -4 -11 -9 -11 -6 0 -16 -12 -23 -27 -8 -16 -23
-29 -36 -31 -18 -3 -21 -6 -12 -17 9 -10 7 -16 -8 -24 -11 -6 -22 -7 -26 -3
-4 3 -4 -2 0 -12 5 -14 4 -17 -4 -12 -7 4 -12 2 -12 -3 0 -6 6 -11 13 -11 7 0
4 -7 -7 -15 -18 -14 -25 -30 -28 -62 -1 -7 -5 -10 -10 -7 -7 5 -12 -9 -9 -28
0 -4 -8 -5 -19 -3 -13 3 -17 -1 -13 -11 3 -8 -1 -14 -8 -14 -11 0 -11 -3 1
-10 11 -7 11 -10 2 -10 -7 0 -10 -4 -7 -10 3 -5 -1 -10 -9 -10 -8 0 -18 -5
-22 -12 -5 -7 -3 -8 7 -3 12 8 12 6 0 -8 -9 -12 -10 -17 -2 -17 8 0 8 -4 -1
-14 -7 -8 -16 -12 -21 -9 -4 2 -7 -3 -7 -11 0 -8 -8 -19 -17 -24 -17 -10 -26
-52 -11 -52 5 0 6 -5 3 -10 -4 -6 -12 -7 -18 -4 -7 4 -9 4 -5 -1 4 -4 0 -14
-10 -22 -9 -8 -11 -12 -5 -8 7 3 13 1 13 -4 0 -6 -5 -11 -11 -11 -6 0 -8 -7
-5 -16 3 -8 2 -13 -2 -11 -4 3 -13 -1 -20 -9 -9 -10 -9 -14 -1 -14 8 0 9 -4 0
-13 -8 -10 -7 -17 1 -25 9 -9 9 -12 0 -12 -6 0 -10 -6 -8 -12 1 -7 1 -10 -1
-5 -11 18 -23 4 -23 -27 0 -19 -5 -38 -12 -42 -7 -5 -8 -3 -3 6 5 8 4 11 -2 7
-13 -8 -24 -47 -13 -47 5 0 2 -13 -6 -30 -9 -17 -20 -30 -25 -30 -6 0 -5 -8 1
-20 8 -14 8 -20 0 -20 -6 0 -8 -4 -5 -10 7 -11 -19 -53 -27 -45 -3 3 -5 -5 -4
-17 0 -13 6 -26 11 -30 6 -5 4 -8 -5 -8 -13 0 -13 -1 0 -10 12 -8 12 -10 -2
-15 -9 -4 -15 -12 -12 -20 3 -7 -2 -15 -10 -18 -18 -7 -22 -37 -5 -37 8 0 7
-6 -2 -17 -8 -9 -9 -14 -3 -10 6 3 11 0 11 -7 0 -8 -6 -12 -14 -9 -8 3 -13 -2
-13 -15 0 -11 -6 -23 -12 -25 -10 -4 -9 -8 2 -16 13 -10 13 -11 0 -11 -13 0
-13 -2 -1 -9 12 -8 12 -12 -2 -26 -10 -9 -14 -22 -10 -28 5 -9 3 -9 -8 0 -12
9 -14 5 -14 -25 0 -21 5 -40 10 -44 6 -5 4 -8 -5 -8 -13 0 -13 -1 0 -10 12 -8
13 -11 1 -19 -11 -7 -11 -9 0 -14 12 -5 12 -6 0 -6 -11 -1 -11 -4 0 -18 10
-11 10 -14 1 -9 -15 9 -16 -6 0 -22 8 -8 8 -12 1 -12 -11 0 -10 -41 2 -59 3
-6 0 -11 -7 -11 -9 0 -9 -3 2 -10 10 -6 11 -10 3 -10 -7 0 -13 -9 -13 -21 0
-13 4 -18 12 -13 7 5 8 3 3 -7 -5 -7 -8 -28 -7 -46 2 -21 -2 -33 -10 -34 -7 0
-4 -4 7 -9 11 -5 14 -9 7 -9 -10 -1 -10 -6 -1 -22 8 -15 8 -19 0 -15 -6 4 -11
3 -11 -3 0 -5 6 -12 13 -14 9 -4 9 -6 -1 -6 -10 -1 -10 -6 -2 -21 8 -15 8 -20
-2 -20 -9 0 -9 -3 2 -10 11 -7 11 -10 2 -10 -10 0 -10 -5 -2 -20 6 -11 7 -20
3 -20 -12 0 -10 -84 2 -92 6 -5 6 -8 -1 -8 -7 0 -9 -15 -4 -45 4 -27 3 -45 -3
-45 -5 0 -3 -8 4 -17 10 -11 10 -14 2 -9 -7 4 -13 2 -13 -3 0 -6 5 -11 10 -11
6 0 10 -10 10 -21 0 -17 3 -19 14 -10 11 9 14 8 12 -6 0 -10 -5 -21 -11 -25
-6 -5 -5 -11 3 -16 7 -5 10 -16 6 -25 -4 -12 -1 -17 12 -17 16 0 17 -2 4 -10
-8 -5 -10 -10 -4 -10 7 0 14 -9 17 -20 3 -11 0 -20 -6 -20 -6 0 -2 -7 9 -16
10 -8 14 -13 7 -10 -6 4 -15 1 -19 -5 -4 -8 -3 -9 4 -5 7 4 12 3 12 -3 0 -6 8
-7 17 -4 16 6 16 5 4 -10 -11 -14 -11 -17 0 -17 12 0 12 -2 0 -9 -11 -7 -11
-9 0 -14 12 -5 12 -6 0 -6 -11 -1 -11 -4 0 -18 12 -14 12 -16 0 -8 -10 5 -12
4 -7 -3 4 -7 13 -12 20 -12 17 0 28 -37 12 -44 -6 -2 -1 -8 11 -11 13 -4 20
-11 17 -16 -3 -5 1 -9 8 -9 9 0 9 -3 -2 -10 -8 -5 -10 -10 -4 -10 7 0 10 -12
8 -29 -3 -22 1 -28 14 -27 9 0 21 -9 27 -21 5 -13 13 -23 17 -23 5 0 8 -5 8
-11 0 -5 -5 -7 -11 -4 -6 4 -5 -2 2 -13 7 -12 17 -18 21 -16 4 3 8 -2 8 -10 0
-9 6 -16 14 -16 9 0 13 -9 11 -25 -1 -17 3 -25 13 -25 8 0 13 -3 9 -6 -9 -9
19 -34 37 -34 9 0 16 -7 16 -16 0 -17 36 -54 52 -54 4 0 8 -7 8 -16 0 -8 5
-12 10 -9 6 3 10 -1 10 -11 0 -12 6 -15 25 -12 14 3 28 1 32 -5 4 -6 1 -7 -7
-2 -9 5 -11 4 -6 -3 4 -7 14 -12 22 -12 8 0 14 -6 14 -12 0 -9 4 -8 10 2 6 10
10 11 10 3 0 -7 7 -13 16 -13 8 0 12 -5 9 -10 -3 -6 1 -10 10 -10 9 0 14 -3
11 -8 -2 -4 7 -12 20 -19 13 -6 24 -7 24 -2 0 14 24 6 31 -11 3 -8 10 -15 15
-15 5 0 15 -4 23 -9 10 -6 12 -5 7 2 -4 7 -4 12 -1 12 11 0 70 -33 76 -42 4
-7 9 -6 13 1 4 6 16 7 29 3 26 -9 69 -8 86 2 6 4 11 3 11 -3 0 -5 8 -8 17 -6
10 2 18 4 18 5 0 1 10 3 22 4 13 2 23 -1 23 -5 0 -9 20 -6 38 4 6 5 12 4 12
-1 0 -5 7 -9 15 -9 8 0 15 4 15 9 0 4 5 8 11 8 5 0 7 -5 3 -11 -4 -7 1 -7 16
1 15 8 20 8 16 1 -4 -6 -3 -11 3 -11 5 0 12 6 14 13 4 9 8 8 16 -3 10 -13 11
-13 11 0 0 13 1 13 11 0 8 -11 12 -12 16 -2 2 6 9 12 14 12 6 0 8 -4 5 -8 -3
-5 1 -9 9 -9 8 0 17 8 20 18 4 12 15 16 40 15 19 -1 35 3 35 8 0 4 8 2 17 -5
11 -10 14 -10 9 -1 -4 7 -2 12 5 12 6 0 18 8 26 17 8 11 11 12 7 3 -7 -13 -5
-13 9 -1 14 11 17 11 17 0 0 -11 2 -11 10 1 8 12 10 12 10 1 0 -11 3 -11 15
-1 10 8 15 9 15 2 0 -6 7 -9 15 -6 8 4 13 10 10 15 -7 10 30 31 40 21 3 -4 5
0 3 8 -1 8 2 14 9 15 6 0 15 3 19 7 4 4 14 2 22 -5 13 -10 14 -9 8 1 -11 19
17 42 37 30 11 -6 17 -5 17 1 0 5 10 8 21 6 12 -3 19 -2 16 2 -11 10 13 42 27
37 7 -3 16 2 19 10 4 9 11 16 17 16 6 0 8 -5 4 -12 -5 -7 -3 -8 5 -4 7 5 10
15 7 23 -3 8 -2 12 3 8 14 -8 42 6 34 18 -4 6 0 8 10 4 11 -4 17 -1 17 8 0 8
5 15 11 15 5 0 7 -5 3 -12 -5 -7 -3 -8 5 -4 7 5 10 14 7 22 -3 8 -2 13 2 13
22 -4 33 3 28 16 -3 8 -2 14 2 13 16 -4 51 14 56 30 3 9 15 23 27 30 12 8 19
9 15 4 -3 -5 1 -9 9 -9 8 0 12 4 9 9 -3 4 0 8 6 8 6 0 8 4 5 10 -3 6 4 10 17
10 19 0 20 2 8 10 -12 8 -11 11 8 16 15 4 21 12 18 21 -3 8 -2 12 3 9 5 -3 16
5 24 18 12 18 13 26 4 35 -9 9 -8 11 5 6 11 -4 20 1 29 17 7 13 11 25 10 26
-2 2 1 7 5 10 4 4 4 1 0 -5 -4 -7 -2 -13 3 -13 6 0 11 7 11 16 0 8 4 13 9 10
5 -3 15 2 22 11 12 14 12 16 -1 8 -8 -5 -2 5 15 23 32 35 46 43 24 15 -13 -16
-12 -17 4 -4 9 7 17 20 17 28 0 8 3 12 8 10 4 -3 13 1 20 9 9 10 9 14 1 14 -8
0 -7 5 2 17 12 14 12 16 0 8 -10 -5 -12 -4 -7 3 4 7 14 12 22 12 8 0 12 5 9
10 -3 6 -1 10 5 10 6 0 8 4 5 10 -3 5 3 20 15 32 11 12 18 28 16 35 -3 7 0 15
6 19 7 5 8 2 4 -7 -4 -8 0 -5 8 5 9 11 16 25 16 31 0 5 10 15 22 20 25 11 40
53 26 71 -6 8 -3 11 9 10 12 0 17 5 15 16 -1 9 9 25 23 36 17 14 21 22 13 25
-10 4 -10 6 -1 6 7 1 10 8 6 18 -4 11 -3 14 5 9 7 -4 12 -1 12 9 0 9 5 13 11
9 7 -4 7 1 -1 16 -8 15 -8 20 -1 16 6 -4 11 0 11 8 0 9 3 15 8 15 18 -3 22 2
12 20 -7 14 -7 22 0 26 8 5 7 12 -2 23 -10 12 -10 14 0 8 7 -4 15 -1 18 8 3 9
10 14 14 11 5 -3 7 9 5 27 -2 18 -1 27 2 21 2 -7 9 -13 14 -13 6 0 7 6 3 13
-6 9 -4 9 8 -1 14 -11 18 -10 28 7 8 16 8 21 -2 21 -10 0 -10 2 0 9 8 4 14 12
14 17 -1 5 6 8 15 6 8 -2 12 1 8 7 -3 6 -1 11 5 11 6 0 8 5 4 11 -4 8 0 8 15
0 19 -10 22 -9 32 16 8 22 12 25 20 13 8 -11 12 -12 16 -2 2 6 9 12 14 12 6 0
7 -5 3 -11 -4 -7 1 -7 16 1 15 8 20 8 16 1 -4 -6 -2 -11 3 -11 6 0 11 6 11 13
0 8 4 7 10 -3 6 -10 10 -11 10 -2 0 6 5 12 11 12 5 0 7 -5 3 -11 -4 -7 1 -7
16 1 15 8 20 8 16 1 -4 -6 -3 -11 3 -11 5 0 12 6 14 13 4 9 8 8 16 -3 10 -13
11 -13 11 0 0 12 2 12 9 2 4 -7 17 -14 28 -15 12 0 19 -6 16 -13 -3 -8 2 -11
15 -7 11 2 23 -1 27 -8 6 -8 4 -10 -6 -4 -12 8 -12 6 0 -9 11 -13 16 -14 22
-4 7 10 9 10 10 -2 1 -8 1 -19 0 -23 -1 -4 4 -7 11 -6 28 3 49 -1 43 -10 -3
-5 4 -12 15 -16 11 -4 20 -12 18 -18 -4 -22 13 -57 24 -51 8 5 9 1 5 -10 -4
-9 -3 -15 2 -11 5 3 17 -2 26 -11 13 -14 14 -19 3 -25 -10 -7 -10 -9 2 -9 12
0 13 -2 1 -9 -11 -7 -11 -9 0 -14 11 -4 11 -6 1 -6 -10 -1 -10 -6 -2 -21 6
-11 7 -20 3 -20 -4 0 2 -7 13 -16 10 -8 12 -13 4 -9 -10 4 -10 2 2 -8 13 -10
15 -16 6 -25 -9 -9 -9 -12 2 -12 13 0 13 -2 0 -10 -11 -7 -11 -10 -2 -10 9 0
10 -5 2 -19 -13 -26 -13 -34 3 -26 6 4 1 -2 -12 -13 -13 -10 -21 -24 -17 -30
3 -5 -1 -13 -9 -16 -14 -5 -14 -8 0 -29 13 -20 13 -26 2 -36 -8 -6 -16 -8 -20
-5 -3 3 -4 -6 -3 -20 2 -14 0 -25 -3 -24 -3 1 -14 -2 -24 -7 -15 -6 -16 -10
-5 -16 10 -7 10 -9 -2 -9 -13 0 -13 -1 0 -10 8 -5 10 -10 4 -10 -6 0 -10 -12
-8 -26 2 -18 -2 -24 -11 -20 -7 2 -15 -4 -18 -15 -3 -10 -1 -19 5 -19 5 0 2
-7 -6 -16 -9 -8 -21 -12 -27 -8 -8 4 -9 3 -5 -4 3 -6 -3 -16 -15 -23 -18 -9
-19 -13 -8 -21 11 -7 11 -11 2 -15 -7 -2 -13 -11 -13 -19 0 -9 -5 -12 -11 -8
-8 5 -10 -1 -7 -19 4 -19 1 -24 -10 -19 -10 3 -13 1 -8 -6 4 -7 2 -12 -4 -12
-6 0 -8 -4 -5 -10 3 -5 2 -10 -3 -10 -6 0 -8 -10 -4 -22 4 -17 2 -20 -12 -15
-9 4 -15 3 -12 -2 3 -5 -5 -21 -18 -36 -15 -17 -22 -35 -19 -49 3 -15 2 -17
-5 -8 -7 10 -12 9 -23 -4 -12 -15 -12 -17 0 -9 10 5 12 4 7 -3 -4 -7 -17 -12
-29 -13 -12 0 -16 -3 -9 -6 10 -4 8 -9 -7 -20 -12 -8 -21 -25 -21 -39 0 -14
-3 -23 -7 -21 -10 4 -53 -40 -45 -47 3 -3 0 -6 -6 -6 -7 0 -12 -5 -12 -11 0
-5 5 -7 12 -3 7 5 8 3 4 -5 -5 -7 -14 -10 -22 -7 -8 3 -11 0 -8 -9 3 -7 -4
-19 -16 -25 -11 -6 -18 -15 -15 -21 4 -5 -2 -9 -12 -9 -14 0 -15 -2 -5 -9 10
-6 7 -10 -12 -15 -17 -4 -24 -11 -20 -18 5 -7 2 -9 -8 -6 -11 5 -14 0 -10 -20
4 -21 2 -24 -13 -18 -16 6 -16 4 -4 -11 7 -10 9 -15 5 -11 -5 4 -14 1 -20 -8
-6 -8 -21 -16 -34 -17 -20 -1 -27 -9 -23 -30 1 -5 -3 -6 -8 -3 -5 4 -12 2 -16
-4 -4 -6 -11 -7 -17 -4 -6 4 -9 1 -6 -6 5 -17 -29 -53 -42 -45 -6 4 -7 -1 -3
-11 5 -14 3 -16 -11 -11 -10 4 -15 3 -11 -3 3 -6 2 -10 -4 -10 -6 0 -7 -7 -4
-17 4 -11 3 -14 -6 -9 -14 9 -43 -12 -35 -25 3 -5 -2 -9 -11 -9 -9 0 -14 -4
-11 -9 3 -5 -8 -14 -24 -21 -17 -7 -30 -17 -30 -22 0 -5 5 -6 12 -2 7 5 8 3 4
-5 -5 -7 -10 -10 -13 -7 -10 9 -34 -24 -27 -36 5 -8 2 -9 -12 -4 -15 5 -14 2
6 -17 14 -14 28 -22 32 -20 5 2 4 -7 -2 -21 -7 -19 -6 -26 3 -26 8 0 7 -4 -3
-10 -10 -6 -11 -10 -2 -10 6 0 12 -7 12 -16 0 -9 5 -12 12 -8 6 4 8 3 5 -2 -3
-6 -2 -16 2 -23 5 -7 5 -30 1 -51 -5 -30 -4 -37 7 -33 7 3 13 -2 13 -11 0 -9
6 -16 13 -16 8 0 8 -3 -2 -9 -11 -7 -10 -12 8 -22 13 -9 21 -24 21 -41 0 -19
5 -28 16 -28 10 0 14 -6 11 -15 -4 -8 -2 -17 4 -20 5 -4 7 -11 4 -16 -4 -5 1
-9 10 -9 9 0 13 -4 10 -10 -3 -5 -2 -10 4 -10 6 0 8 -7 4 -16 -4 -10 1 -20 11
-26 9 -5 14 -13 11 -19 -4 -5 -1 -9 6 -9 8 0 7 -5 -2 -17 -10 -11 -10 -14 -1
-9 7 4 12 1 12 -8 0 -9 5 -16 11 -16 5 0 8 -4 5 -8 -6 -10 29 -43 38 -36 3 2
2 -1 -3 -7 -12 -15 11 -60 28 -54 8 3 11 0 8 -7 -2 -7 2 -19 9 -26 8 -7 14
-10 14 -7 0 3 6 0 14 -7 8 -7 12 -16 9 -20 -2 -5 2 -8 9 -8 9 0 9 -3 -2 -10
-9 -6 -10 -10 -3 -10 6 0 15 -9 18 -20 3 -11 12 -20 19 -20 8 0 20 -8 27 -17
13 -17 13 -17 -6 -3 -19 14 -19 14 -6 -2 7 -10 23 -18 35 -19 11 0 15 -3 9 -6
-10 -3 -10 -8 1 -19 8 -8 20 -14 26 -14 6 0 8 -4 5 -10 -3 -5 -1 -10 5 -10 6
0 9 -4 6 -9 -3 -5 4 -11 15 -14 15 -4 20 -11 15 -23 -5 -13 -4 -14 7 -6 11 9
13 7 13 -11 -1 -17 5 -23 27 -25 22 -3 26 -6 17 -17 -9 -11 -7 -12 12 -8 18 4
20 3 8 -6 -13 -10 -13 -11 0 -12 8 -1 18 -1 22 0 5 0 8 -6 8 -14 0 -8 7 -15
16 -15 11 0 14 -5 10 -17 -4 -10 -4 -14 0 -10 4 4 13 -2 21 -13 8 -11 21 -20
29 -20 8 0 12 -4 9 -10 -6 -9 7 -14 27 -11 4 0 5 -5 2 -13 -3 -8 0 -17 7 -22
8 -4 10 -3 5 4 -4 7 -2 12 3 12 6 0 11 -4 11 -10 0 -5 6 -7 14 -4 8 3 17 0 22
-7 5 -8 3 -10 -6 -4 -9 5 -11 4 -6 -3 4 -7 14 -12 22 -12 8 0 13 -4 10 -9 -5
-8 12 -16 51 -26 7 -2 20 -10 29 -19 19 -19 28 -21 19 -3 -4 6 2 2 13 -10 11
-12 22 -19 26 -16 3 4 6 0 6 -8 0 -11 2 -11 10 1 6 10 10 11 10 3 0 -7 7 -13
16 -13 9 0 14 -6 11 -12 -3 -9 5 -13 24 -13 16 0 29 3 29 7 0 4 7 5 15 1 9 -3
14 -8 11 -10 -3 -3 1 -11 7 -18 8 -9 16 -10 25 -3 8 7 12 7 12 0 0 -6 7 -9 15
-6 8 4 15 1 15 -6 0 -6 4 -8 10 -5 5 3 10 -2 10 -12 0 -15 2 -16 10 -3 9 13
10 13 10 0 0 -13 1 -13 10 0 9 13 10 13 10 0 0 -11 2 -12 8 -3 5 7 13 9 21 3
8 -4 24 -4 37 0 15 6 26 5 30 -2 5 -7 2 -8 -7 -3 -10 6 -11 5 -4 -3 6 -6 20
-13 32 -15 13 -2 25 -6 29 -10 4 -3 15 -2 25 4 14 7 19 6 19 -2 0 -8 4 -8 15
1 11 9 15 9 15 1 0 -7 5 -9 13 -4 18 11 57 11 64 0 4 -6 1 -7 -7 -2 -9 5 -11
4 -6 -3 5 -9 12 -8 28 1 17 10 22 9 31 -4 10 -15 12 -15 30 5 12 13 17 15 14
6 -4 -13 2 -15 27 -12 17 2 39 3 49 3 9 0 15 4 13 8 -3 4 1 8 9 8 8 0 15 -5
15 -11 0 -6 5 -4 10 4 7 11 10 11 10 2 0 -8 5 -10 12 -6 18 11 62 11 70 -1 5
-6 8 -5 8 4 0 11 3 11 17 0 11 -10 14 -10 9 -1 -7 11 5 17 28 13 5 -1 3 5 -4
14 -11 13 -10 15 2 10 27 -11 98 -11 98 0 0 5 5 3 10 -5 7 -11 10 -11 10 -2 0
7 5 10 10 7 6 -3 10 1 10 9 0 8 5 18 12 22 8 5 9 2 4 -11 -5 -14 -4 -16 7 -7
8 7 18 8 22 4 5 -4 5 -1 1 6 -6 9 -1 11 18 8 18 -3 27 1 31 14 4 11 12 17 20
13 8 -3 12 -10 9 -17 -3 -6 1 -3 9 6 9 12 17 14 24 7 8 -8 13 -7 18 2 6 8 4
10 -5 4 -9 -5 -11 -4 -6 3 4 7 14 12 22 12 8 0 14 6 14 13 0 8 4 7 10 -3 6
-10 10 -11 10 -2 0 6 7 12 15 12 8 0 14 5 12 12 -1 6 11 12 28 12 20 1 30 6
30 16 0 10 10 15 32 15 17 -1 31 4 30 10 -1 5 4 9 11 7 8 -1 11 2 7 8 -3 5 -1
10 5 10 6 0 8 5 4 11 -4 7 1 7 16 -1 13 -7 20 -8 16 -2 -3 6 -2 13 4 17 5 3
10 0 10 -7 0 -10 2 -10 9 1 5 8 11 9 15 3 7 -11 24 -11 44 1 7 5 12 3 12 -4 0
-8 4 -8 15 1 11 9 15 9 15 1 0 -9 5 -9 21 0 13 6 19 7 15 1 -7 -11 12 -11 32
1 7 5 12 3 12 -4 0 -8 3 -9 14 0 11 9 13 6 11 -14 -2 -14 1 -23 6 -19 5 3 7
11 3 17 -3 7 2 3 10 -7 9 -11 16 -15 16 -8 0 6 7 9 15 6 8 -3 13 -11 12 -17
-1 -7 6 -11 16 -11 10 1 16 -4 15 -11 -2 -8 1 -14 6 -13 5 0 13 -8 18 -17 7
-11 13 -13 21 -7 8 7 16 5 25 -4 7 -8 10 -14 7 -14 -3 0 0 -6 7 -14 7 -8 15
-13 18 -11 10 6 30 -24 20 -30 -14 -9 1 -37 17 -31 8 3 11 2 8 -3 -3 -6 3 -14
12 -20 14 -8 15 -10 3 -11 -13 0 -13 -2 0 -9 8 -6 19 -7 25 -4 5 3 4 0 -2 -8
-7 -7 -13 -17 -13 -22 0 -4 6 -5 13 -1 8 5 8 2 -2 -9 -9 -12 -10 -17 -2 -17 7
0 9 -4 6 -10 -3 -5 -1 -10 5 -10 15 0 40 -25 40 -40 0 -6 5 -8 10 -5 6 3 10 2
10 -4 0 -5 -4 -12 -10 -16 -14 -9 0 -34 16 -28 8 3 14 -1 14 -11 0 -10 9 -16
23 -16 18 0 19 -2 7 -10 -13 -9 -13 -10 0 -10 10 0 11 -3 3 -8 -8 -5 -5 -14
10 -32 16 -20 19 -21 13 -5 -6 16 -3 15 17 -5 16 -18 20 -29 13 -38 -5 -7 -5
-12 0 -11 21 4 34 -2 34 -15 0 -8 5 -18 12 -22 7 -5 8 -3 3 7 -8 12 -6 12 9 0
13 -11 14 -16 4 -22 -9 -6 -6 -9 10 -9 13 0 22 -6 22 -16 0 -10 5 -14 16 -10
8 3 13 2 10 -3 -3 -4 2 -17 10 -27 9 -10 12 -13 8 -5 -5 9 -3 12 4 7 7 -4 12
-14 12 -22 0 -8 5 -12 10 -9 6 3 10 -1 10 -10 0 -8 11 -20 25 -25 14 -5 25
-12 25 -15 0 -4 -5 -3 -12 1 -7 5 -8 3 -4 -5 5 -7 14 -10 22 -7 8 3 13 2 13
-2 -4 -22 4 -32 24 -32 15 0 18 -3 9 -8 -9 -6 -6 -12 12 -21 13 -8 29 -10 35
-6 6 3 10 3 9 -2 -2 -4 1 -8 6 -8 5 0 12 -10 17 -22 5 -13 16 -23 25 -23 27 0
74 -33 74 -52 0 -12 7 -18 21 -18 11 0 18 -4 15 -9 -3 -5 3 -11 14 -14 11 -3
18 -1 15 3 -3 4 4 6 16 3 16 -4 17 -8 7 -14 -10 -7 -8 -9 6 -9 12 0 16 -5 12
-16 -3 -8 -2 -12 4 -9 6 3 10 1 10 -6 0 -7 11 -10 29 -7 17 2 28 2 26 -2 -2
-3 10 -13 26 -23 17 -9 27 -12 24 -7 -3 6 -1 10 4 10 6 0 11 -5 11 -11 0 -6 7
-8 16 -5 10 4 18 0 21 -12 4 -16 10 -18 45 -12 30 6 41 4 45 -6 3 -8 12 -14
20 -14 8 0 11 -4 8 -10 -4 -7 3 -7 19 0 18 7 26 6 26 -1 0 -8 5 -7 15 1 11 9
15 9 15 1 0 -7 4 -10 9 -7 15 10 41 -5 41 -23 0 -13 2 -13 9 -2 7 11 9 11 14
0 4 -11 6 -11 6 -1 1 7 6 10 12 7 17 -11 109 -11 109 0 0 6 5 3 10 -5 9 -13
10 -13 10 0 0 13 1 13 10 0 7 -11 10 -11 10 -2 0 7 5 10 11 7 17 -11 89 -11
89 0 0 6 5 3 10 -5 9 -13 10 -13 10 0 0 13 1 13 10 0 7 -11 10 -11 10 -2 0 10
5 10 20 2 15 -8 20 -8 20 2 0 9 3 9 10 -2 8 -12 10 -12 10 -1 0 11 3 11 15 1
11 -9 15 -9 15 -1 0 8 5 9 16 3 12 -7 23 -2 42 17 16 16 27 21 30 13 2 -8 9
-9 23 -2 10 6 19 7 19 2 0 -4 9 -8 19 -8 11 0 19 5 18 11 -1 5 4 9 11 7 7 -1
15 5 18 13 5 12 9 13 21 3 11 -9 16 -9 24 3 7 12 9 12 9 -1 0 -12 2 -13 9 -1
5 7 14 10 20 7 6 -4 11 -2 11 5 0 7 3 10 6 6 4 -3 13 1 21 9 10 10 19 11 27 5
12 -10 51 11 39 22 -3 4 11 6 31 5 23 -1 41 4 47 13 5 8 9 11 9 7 0 -5 11 2
25 14 13 11 22 25 18 31 -3 5 4 4 16 -2 12 -7 21 -8 21 -2 0 5 10 7 22 3 13
-3 19 -1 15 5 -6 10 19 28 35 25 4 -1 4 6 1 15 -4 11 -3 14 5 9 8 -4 12 0 13
11 0 11 3 13 6 5 3 -8 10 -5 23 10 15 19 20 21 34 9 15 -13 18 -12 23 8 4 17
8 19 14 9 7 -10 9 -9 9 5 0 10 4 16 8 13 5 -3 17 5 27 17 12 13 20 17 23 9 3
-9 7 -9 17 1 7 7 11 15 8 19 -2 5 9 8 26 8 21 0 32 6 36 20 6 20 25 28 25 11
0 -5 10 -7 22 -3 12 3 17 7 11 9 -10 4 -10 8 0 18 7 7 16 10 21 8 5 -3 6 0 4
8 -6 17 43 49 74 49 12 0 19 3 15 6 -10 10 22 36 34 28 7 -4 9 -3 6 2 -3 6 -2
16 4 24 7 13 9 13 9 0 0 -13 1 -13 10 0 7 11 10 11 10 2 0 -7 5 -10 11 -7 6 4
8 13 5 21 -3 8 -2 13 2 12 14 -3 42 14 36 23 -3 5 0 9 6 9 19 0 42 29 34 42
-6 9 -3 9 9 -1 15 -12 17 -11 17 3 0 10 5 14 10 11 6 -3 10 -2 10 4 0 6 7 8
15 5 8 -4 15 -1 15 6 0 6 5 8 13 4 8 -5 7 -2 -2 9 -12 15 -12 17 4 11 10 -4
16 -3 13 2 -3 5 0 15 8 22 8 7 14 10 14 7 0 -3 10 3 22 14 17 17 24 18 37 8
12 -9 13 -9 7 1 -4 7 -2 12 5 12 8 0 8 4 1 13 -7 8 -6 18 4 31 8 11 14 15 14
10 0 -6 -6 -16 -12 -24 -7 -8 -1 -4 15 9 15 14 27 20 27 15 1 -5 7 2 15 16 8
14 14 21 15 16 0 -5 11 3 25 18 13 14 29 26 34 26 6 0 7 7 4 17 -5 12 -3 14 7
8 10 -6 12 -4 7 9 -4 9 -3 15 2 11 6 -3 14 2 19 11 5 9 13 17 18 17 5 1 8 5 7
9 -3 8 13 12 30 9 5 -1 6 3 2 9 -3 5 -1 10 5 10 6 0 8 5 5 10 -6 9 16 15 39
11 5 -1 4 4 -2 12 -14 17 -6 28 16 20 10 -4 13 -2 8 5 -8 13 33 44 47 35 6 -3
7 -1 3 5 -7 12 13 52 27 52 4 0 5 -6 1 -13 -5 -8 -3 -8 9 2 9 7 15 17 12 21
-3 5 4 15 15 23 11 7 17 18 12 23 -4 4 1 2 10 -5 15 -11 17 -10 13 8 -2 12 0
19 4 16 9 -5 26 23 23 37 -1 4 4 5 12 2 8 -3 22 9 34 28 12 18 22 28 22 23 0
-6 -6 -17 -12 -25 -11 -12 -10 -12 5 -1 9 7 17 20 17 28 0 8 5 11 12 7 8 -5 9
-2 4 12 -4 10 -4 15 0 11 4 -4 13 -2 21 4 9 9 13 8 13 0 0 -9 4 -8 13 1 8 7
13 23 11 36 -2 16 2 22 11 18 9 -3 12 2 10 15 -4 18 -2 19 12 7 9 -7 14 -8 11
-3 -4 6 0 19 8 30 8 10 14 16 14 12 0 -3 10 4 23 16 13 12 22 25 20 30 -2 4 3
7 12 7 9 0 13 5 10 10 -3 6 -2 10 2 10 5 0 18 7 29 16 10 8 13 12 5 8 -9 -4
-12 -3 -7 4 4 6 13 9 20 6 9 -3 16 5 20 21 5 18 12 25 21 21 8 -3 14 -2 14 2
-3 20 2 33 11 27 6 -3 10 -1 10 5 0 6 5 8 13 4 7 -5 6 0 -3 11 -14 17 -13 18
2 12 12 -4 19 0 23 14 4 10 10 17 15 14 10 -6 22 23 14 36 -3 5 2 12 10 15 9
3 13 11 9 18 -4 6 1 4 11 -4 16 -13 20 -12 32 5 8 10 10 21 5 24 -5 4 -3 15 5
25 8 11 14 16 14 10 1 -5 7 2 15 16 8 14 14 21 15 16 0 -6 9 0 21 13 12 13 19
30 16 42 -3 10 0 22 5 26 7 4 8 1 4 -8 -4 -8 2 -3 13 11 11 14 21 28 21 33 0
4 6 7 13 7 18 0 49 39 41 51 -4 7 3 6 16 -1 15 -8 20 -8 16 -1 -4 6 -1 11 6
11 9 0 9 3 -2 10 -13 8 -12 10 4 10 11 0 16 5 13 14 -4 10 1 13 19 11 18 -2
22 1 15 8 -7 7 -4 14 12 22 12 6 21 17 20 23 -2 6 6 9 16 7 12 -2 18 2 17 13
0 10 8 18 20 20 12 2 26 14 32 28 7 13 17 24 23 24 6 0 9 6 6 13 -3 7 5 19 16
27 21 12 21 12 7 -6 -14 -17 -14 -18 2 -6 10 8 14 20 11 29 -4 11 -2 14 5 9 7
-4 12 -2 12 4 0 6 5 8 12 4 6 -4 8 -3 5 4 -4 5 7 22 23 36 17 14 30 28 30 31
-1 17 1 19 8 9 5 -7 14 -5 27 9 11 11 13 16 5 12 -13 -8 -13 -6 -1 8 7 9 18
14 24 10 6 -4 8 2 5 14 -4 15 -1 20 11 19 9 0 15 5 13 13 -2 9 3 11 14 7 12
-4 15 -2 10 9 -3 9 0 15 10 15 8 0 12 5 9 10 -3 6 5 14 18 19 14 6 29 16 33
23 6 10 4 11 -7 3 -14 -10 1 4 39 35 10 8 11 11 3 5 -14 -9 -14 -8 -2 8 7 9
20 17 28 17 8 0 11 5 7 12 -5 8 -2 9 10 5 9 -4 15 -3 12 2 -3 5 1 11 9 15 8 3
15 12 15 21 0 8 7 15 15 15 9 0 15 9 15 23 0 16 3 18 9 8 6 -9 11 -10 15 -2 4
6 4 11 -1 11 -4 0 -1 5 7 10 11 7 11 10 2 10 -7 0 -10 5 -7 10 4 6 11 7 17 4
6 -4 8 -2 5 3 -4 6 0 16 8 23 8 7 13 15 11 19 -3 4 4 7 14 7 10 0 16 -4 14 -8
-8 -13 6 -9 21 6 10 10 11 16 2 25 -8 8 -8 11 2 11 7 0 9 5 5 12 -5 8 -2 9 10
5 10 -4 15 -3 11 3 -3 5 4 14 15 20 11 6 19 16 17 23 -1 7 3 11 10 10 6 -2 15
6 18 17 4 11 11 18 16 15 5 -4 9 -1 9 5 0 6 5 8 11 4 8 -4 8 -1 2 12 -7 14 -5
24 9 37 12 11 18 13 18 5 0 -7 10 -2 21 12 11 14 17 18 13 10 -4 -8 2 -6 13 5
14 13 16 22 9 27 -7 5 -6 8 4 8 13 0 13 1 0 10 -13 8 -12 10 3 10 9 0 17 6 17
14 0 8 4 18 10 21 6 4 7 -1 4 -12 -3 -10 4 -3 16 15 12 17 26 32 32 32 5 0 7
4 3 9 -3 5 4 12 15 16 11 4 18 11 14 16 -3 6 3 13 15 16 18 4 19 8 9 27 -10
18 -9 19 4 8 13 -10 17 -10 22 3 3 9 2 13 -4 10 -5 -3 -7 1 -4 9 3 9 9 14 12
13 10 -3 52 41 52 53 0 7 6 7 19 0 22 -11 29 -5 26 27 -1 12 2 20 6 17 4 -2
10 5 14 15 3 11 15 23 26 26 10 4 17 11 14 16 -4 5 -2 9 4 9 6 0 8 8 4 18 -3
9 -3 14 2 10 4 -4 14 0 21 10 10 12 13 13 14 3 0 -8 8 -4 19 10 14 18 17 28 9
43 -7 13 -7 16 1 12 6 -4 14 0 17 9 4 9 13 14 21 11 9 -4 11 -2 7 6 -5 8 -2 9
11 4 15 -5 16 -4 5 9 -11 13 -11 16 1 13 8 -2 13 3 11 11 -2 9 3 11 13 7 10
-3 14 -2 9 5 -3 6 9 24 27 40 18 16 29 29 24 29 -5 0 0 7 11 16 10 8 13 13 7
9 -8 -4 -11 -1 -7 9 3 9 12 12 21 9 10 -4 14 -2 10 4 -4 6 0 14 9 17 8 3 12
10 9 16 -3 5 1 10 10 10 9 0 13 5 10 10 -3 6 -2 10 3 10 5 0 22 12 37 26 27
25 27 26 6 19 -16 -5 -21 -4 -17 4 4 6 14 11 22 11 8 0 14 10 15 23 0 12 3 16
6 9 4 -10 8 -9 19 5 9 12 13 13 14 5 0 -24 20 -1 20 24 0 15 6 24 16 24 9 0
12 5 8 13 -6 9 -5 9 8 0 19 -16 28 -7 28 29 0 18 5 28 15 28 8 0 14 5 13 12
-2 7 4 12 12 13 8 1 14 6 13 12 -2 7 6 15 17 18 11 4 18 10 15 15 -3 5 4 11
15 15 11 3 20 13 20 21 0 8 5 12 10 9 6 -3 10 1 10 9 0 9 6 16 14 16 8 0 18 5
22 12 4 7 3 8 -4 4 -20 -12 -13 5 11 26 12 11 15 17 7 13 -8 -4 -6 1 5 10 11
9 19 20 18 25 -2 5 5 6 14 3 11 -4 14 -3 9 5 -4 8 0 12 11 13 10 0 13 3 7 5
-13 6 47 74 65 74 7 0 10 3 8 8 -6 9 19 33 27 25 3 -4 6 1 6 10 0 10 6 17 13
17 7 0 17 10 22 22 6 13 20 28 32 34 13 6 20 14 16 17 -6 7 13 11 32 7 6 -1 7
2 3 6 -4 4 -2 14 5 22 10 13 9 14 -3 7 -12 -7 -13 -6 -3 7 7 8 9 19 5 23 -4 5
1 5 11 2 10 -4 17 -1 17 6 0 8 3 7 9 -2 7 -11 12 -3 21 28 7 28 18 45 31 48
10 3 17 9 14 13 -3 5 0 12 6 16 8 4 9 3 5 -4 -4 -7 -1 -12 9 -12 9 0 13 5 10
10 -3 6 -1 10 5 10 6 0 8 5 5 10 -3 6 -1 10 5 10 6 0 8 4 5 10 -3 5 -1 10 4
10 15 0 51 37 43 44 -3 3 0 6 7 6 7 0 9 4 6 10 -3 6 1 7 9 4 10 -4 20 3 27 20
7 14 16 26 21 26 5 0 6 5 2 12 -5 7 -3 8 5 3 13 -7 55 28 45 38 -3 3 4 8 16
12 13 4 19 12 16 21 -3 9 -1 12 4 9 6 -3 10 -2 10 3 0 5 11 15 25 22 14 8 23
20 21 27 -3 7 -2 12 2 11 14 -3 42 14 36 23 -3 5 2 9 10 9 8 0 18 5 22 12 5 7
2 9 -7 4 -8 -4 -5 0 5 8 11 9 24 16 29 16 4 0 5 4 2 10 -3 6 -2 10 4 10 14 0
61 45 61 59 0 7 4 10 9 7 5 -3 12 1 15 10 3 8 10 12 16 9 6 -4 7 1 3 11 -4 11
-2 15 4 11 6 -4 14 0 17 9 5 13 9 14 21 4 13 -11 14 -10 9 4 -4 10 -1 16 7 16
7 0 10 3 6 6 -10 11 25 42 43 37 10 -3 21 0 24 6 4 6 3 11 -1 11 -5 0 -9 9 -9
19 0 11 3 18 6 16 4 -2 18 7 33 21 15 14 27 19 27 13 0 -7 12 1 28 18 15 16
35 33 45 36 10 4 15 11 12 17 -3 5 -1 10 5 10 6 0 8 5 4 12 -4 7 -3 8 4 4 12
-7 54 23 46 35 -2 4 5 10 16 14 11 3 20 13 20 20 0 17 34 38 44 27 4 -3 4 1 1
9 -4 11 4 22 22 34 35 23 57 45 46 46 -4 0 1 4 12 8 11 5 20 14 20 21 0 7 6
15 14 18 9 3 11 0 7 -9 -4 -8 1 -4 12 8 11 12 23 19 27 15 3 -4 6 -2 5 3 -1 6
-2 19 -1 30 1 15 3 17 10 7 7 -11 9 -11 14 2 4 9 11 16 17 16 6 0 8 -5 4 -12
-4 -7 -3 -8 4 -4 7 4 12 14 12 23 0 9 3 14 6 11 6 -7 54 39 54 52 0 5 5 12 12
16 7 5 9 2 4 -7 -4 -8 0 -5 8 5 9 11 16 23 16 28 0 4 3 7 8 6 4 -2 8 1 9 6 1
5 13 16 27 26 15 9 23 19 20 23 -4 4 0 9 9 13 13 5 14 10 6 25 -6 13 -6 19 1
19 5 0 10 5 10 11 0 5 -5 7 -11 3 -6 -3 -3 5 6 20 10 14 22 23 29 19 6 -4 5 0
-2 9 -8 10 -9 18 -3 22 6 4 7 14 4 24 -3 9 -3 14 1 10 14 -12 35 16 25 34 -10
19 4 33 23 22 6 -4 8 -3 4 4 -3 6 -2 14 4 17 8 5 7 11 -1 21 -9 11 -8 14 2 14
12 0 12 2 0 9 -10 6 -10 10 -1 16 9 6 9 10 -1 16 -12 7 -12 9 0 9 10 0 11 3 3
13 -8 10 -5 20 14 40 15 16 20 27 12 27 -9 0 -9 3 2 10 13 9 13 10 0 10 -9 0
-11 3 -5 8 6 4 10 17 9 30 -1 18 1 20 13 11 11 -9 12 -9 8 4 -4 8 -2 18 4 22
8 4 8 12 1 25 -7 13 -6 20 3 24 9 5 9 7 -1 12 -10 5 -10 9 0 22 10 12 10 14 1
8 -7 -4 -13 -3 -13 3 0 5 6 12 13 14 9 4 9 7 -1 15 -11 7 -11 12 2 25 19 19
21 31 4 21 -7 -4 -5 2 6 14 12 13 17 31 14 47 -3 14 -1 25 6 25 6 0 4 5 -4 10
-8 5 -10 10 -4 10 8 0 9 11 4 35 -5 21 -4 35 2 35 5 0 6 5 3 10 -4 6 -12 8
-18 4 -7 -3 -3 2 8 11 11 9 19 23 17 32 -2 10 1 12 10 7 10 -6 10 -4 -1 9 -12
15 -12 17 3 11 9 -3 16 -1 16 5 0 6 -6 11 -12 11 -8 0 -9 3 -3 8 14 10 17 32
5 32 -6 0 -6 9 0 25 7 18 6 25 -3 25 -7 0 -8 3 -2 8 14 10 15 42 1 42 -6 0 -4
5 4 10 8 5 10 10 4 10 -14 0 -13 32 1 42 6 5 5 8 -3 8 -10 0 -10 5 -2 20 8 15
8 20 -1 20 -8 0 -7 5 2 17 12 15 12 16 -1 8 -13 -8 -13 -7 -1 8 10 13 10 17 1
17 -10 0 -10 3 -1 14 9 10 9 16 1 21 -8 5 -8 10 0 20 8 10 7 14 -2 18 -11 4
-10 6 0 6 7 1 11 5 7 11 -3 5 -13 6 -22 3 -12 -5 -14 -3 -8 6 4 8 2 17 -6 22
-12 7 -12 9 0 9 11 0 11 3 1 15 -7 8 -8 15 -3 15 11 0 9 42 -2 59 -3 6 0 11 7
11 9 0 9 3 -2 10 -8 5 -10 10 -4 10 8 0 9 11 4 34 -4 19 -5 38 -2 41 4 3 -1 3
-10 0 -9 -4 -19 -1 -24 6 -4 8 -3 10 5 5 8 -5 10 0 7 18 -3 14 -7 29 -9 33 -2
5 -1 17 3 28 4 11 4 30 -1 42 -5 13 -4 25 1 28 13 8 -12 35 -25 27 -5 -3 -3 3
5 13 8 10 10 16 3 12 -6 -4 -14 -3 -18 3 -3 5 0 10 7 10 9 0 9 3 -2 10 -9 6
-10 10 -3 10 11 0 9 11 -13 73 -4 9 -11 17 -16 17 -6 0 -5 7 2 15 10 12 10 15
0 15 -9 0 -9 4 1 17 12 15 12 16 -1 8 -13 -7 -13 -6 -2 7 10 13 10 17 0 21
-10 4 -10 6 1 6 10 1 8 7 -7 19 -12 11 -22 33 -24 49 -1 22 -6 29 -17 25 -9
-3 -12 -1 -7 6 4 7 2 12 -6 12 -9 0 -9 3 2 10 13 9 13 10 0 10 -12 0 -13 2 -1
9 11 7 11 9 0 14 -11 4 -11 6 -1 6 10 1 10 4 -2 16 -8 8 -18 15 -23 15 -5 0
-9 9 -9 20 0 11 5 20 11 20 5 0 3 5 -5 10 -13 9 -13 10 0 10 11 1 10 4 -4 15
-20 15 -20 15 0 16 14 0 15 2 4 6 -8 4 -21 12 -28 20 -11 11 -11 13 0 13 10 0
9 3 -2 10 -11 7 -12 10 -2 10 18 0 -11 30 -30 30 -10 0 -9 3 2 10 13 9 13 10
0 10 -12 0 -13 2 -1 9 11 7 11 9 0 14 -10 4 -10 6 -1 6 6 1 12 6 12 12 0 5 -4
8 -8 5 -4 -2 -14 5 -22 17 -12 21 -12 21 6 7 13 -10 11 -6 -4 12 -18 19 -20
27 -10 31 10 4 10 6 1 6 -7 1 -13 7 -13 15 0 8 -5 18 -12 22 -7 5 -8 2 -3 -7
5 -8 4 -11 0 -6 -5 4 -8 26 -6 47 2 39 -18 77 -34 62 -4 -4 -2 4 5 18 7 14 9
22 5 18 -13 -13 -37 22 -33 47 3 13 2 22 -2 20 -10 -6 -32 20 -23 28 3 4 2 7
-4 7 -6 0 -10 8 -9 18 0 9 -5 16 -11 14 -7 -1 -13 7 -13 19 0 11 -4 17 -10 14
-5 -3 -10 2 -10 12 0 15 -4 14 -20 -7 -13 -17 -20 -20 -20 -10 0 13 -1 13 -10
0 -9 -13 -10 -13 -10 0 0 13 -1 13 -10 0 -9 -13 -10 -13 -10 0 0 13 -1 13 -10
0 -9 -13 -10 -13 -10 0 0 13 -1 13 -10 0 -9 -13 -10 -13 -10 0 0 9 -3 11 -8 5
-9 -12 -44 -16 -36 -4 3 5 1 9 -5 9 -5 0 -12 -6 -14 -12 -4 -10 -8 -9 -16 2
-8 11 -11 12 -11 2 0 -7 -5 -10 -10 -7 -6 4 -9 1 -8 -7 2 -9 -10 -13 -44 -13
-27 0 -48 -4 -48 -8 0 -5 -6 -5 -12 0 -19 11 -39 13 -32 2 7 -11 1 -11 -30 1
-19 7 -26 6 -27 -3 0 -6 -4 -3 -9 8 -7 17 -9 17 -9 3 -1 -21 -2 -21 -35 -8
-19 7 -26 6 -26 -3 0 -8 -4 -7 -10 3 -7 11 -10 11 -10 2 0 -10 -5 -10 -20 -2
-15 8 -20 8 -20 -2 0 -9 -3 -9 -10 2 -6 10 -10 11 -10 3 0 -7 -4 -13 -10 -13
-5 0 -6 8 -3 17 5 13 2 15 -12 10 -16 -7 -16 -5 -4 9 13 16 12 16 -8 6 -16 -9
-23 -9 -27 1 -5 9 -7 9 -12 0 -3 -7 -10 -13 -15 -13 -6 0 -7 6 -3 13 6 9 4 9
-8 -1 -13 -10 -17 -10 -21 0 -4 8 -8 9 -14 3 -10 -13 -43 -16 -43 -4 0 5 -5 9
-11 9 -5 0 -7 -5 -3 -12 5 -7 3 -8 -7 -2 -8 5 -17 9 -21 9 -4 0 -17 8 -29 19
-18 15 -23 15 -30 5 -7 -11 -9 -11 -9 1 0 13 -1 13 -10 0 -8 -12 -10 -12 -16
3 -3 9 -10 15 -14 12 -4 -3 -11 2 -14 11 -5 13 -9 14 -21 4 -12 -10 -15 -10
-15 1 0 11 -2 11 -10 -1 -8 -12 -10 -12 -10 -1 0 11 -3 11 -15 1 -13 -11 -14
-10 -10 2 3 8 -2 21 -12 29 -17 13 -17 13 -3 -5 15 -19 14 -19 -17 -3 -24 13
-33 14 -36 4 -4 -9 -6 -9 -6 1 -1 19 -31 48 -31 30 0 -10 -2 -10 -9 1 -7 11
-9 11 -14 0 -4 -10 -6 -9 -6 4 -1 17 -8 20 -43 20 -10 0 -15 4 -12 8 3 5 -3
12 -13 16 -9 4 -28 18 -40 31 -13 14 -23 20 -23 14 0 -6 -7 -9 -15 -5 -9 3
-14 8 -11 10 3 3 -1 11 -7 18 -9 9 -17 10 -31 3 -13 -7 -16 -7 -12 1 4 6 0 11
-9 11 -9 0 -14 3 -12 8 3 4 -1 12 -8 19 -11 10 -15 10 -18 0 -3 -7 -6 -3 -6 8
-1 13 -8 21 -21 22 -13 1 -18 -2 -14 -9 4 -7 2 -8 -4 -4 -6 4 -8 14 -5 23 4
11 3 14 -5 9 -7 -4 -15 -1 -18 8 -3 9 -12 16 -19 16 -7 0 -15 9 -18 20 -3 12
-14 20 -29 21 -12 0 -17 3 -11 6 10 3 10 8 -1 19 -8 8 -20 14 -26 14 -6 0 -9
4 -6 9 3 5 -4 11 -17 15 -19 5 -20 8 -7 17 11 7 12 12 3 15 -7 3 -9 12 -6 21
4 11 2 14 -5 9 -7 -4 -12 -2 -12 4 0 6 -5 8 -12 4 -9 -5 -9 -2 1 9 10 13 10
17 1 17 -9 0 -9 4 1 17 10 11 10 14 2 9 -7 -4 -13 -2 -13 3 0 6 5 11 10 11 6
0 10 5 10 11 0 5 -5 7 -11 3 -7 -4 -7 1 1 16 8 15 8 20 1 16 -6 -4 -11 -3 -11
3 0 5 6 12 13 14 9 4 8 8 -3 16 -13 10 -13 11 0 11 13 0 13 1 0 11 -11 8 -12
12 -2 16 6 2 12 13 12 23 0 11 8 24 18 29 10 6 12 11 4 11 -9 0 -10 5 -3 19 6
10 7 21 3 25 -3 4 1 4 10 1 17 -7 43 27 30 39 -3 4 1 4 10 1 13 -5 16 -2 13
14 -2 12 0 19 6 16 5 -4 9 -1 9 5 0 6 5 8 13 4 8 -5 8 -2 -2 9 -7 9 -12 17
-10 18 2 0 11 2 20 4 43 8 61 17 49 25 -8 5 -3 10 14 14 14 3 25 10 25 14 -3
17 3 19 36 12 21 -5 35 -4 35 2 0 5 7 16 15 24 9 9 15 11 15 4 0 -8 6 -8 20 0
14 8 20 8 20 0 0 -8 6 -8 20 0 15 8 20 8 20 -2 0 -8 3 -9 8 -3 10 14 35 18 26
4 -4 -8 0 -9 15 -4 15 4 23 1 27 -10 4 -9 13 -14 20 -11 8 3 14 0 14 -7 0 -8
4 -6 10 3 7 12 10 12 10 1 0 -7 6 -11 14 -8 19 8 28 -3 15 -19 -8 -9 -5 -11
10 -7 14 3 23 0 27 -11 3 -9 12 -16 19 -16 7 0 15 -10 18 -22 5 -18 8 -19 21
-8 13 10 16 10 16 -3 0 -8 5 -17 10 -19 6 -2 12 -12 12 -24 1 -11 9 -20 19
-20 10 0 15 4 12 10 -8 12 60 -26 69 -39 5 -6 8 -5 8 3 0 10 3 10 14 0 7 -7
11 -20 9 -28 -4 -13 -4 -13 7 0 9 12 13 12 17 2 4 -10 8 -10 19 -1 11 9 14 8
14 -2 0 -11 2 -11 10 1 6 10 10 11 10 3 0 -7 7 -13 16 -13 9 0 12 -5 8 -12 -5
-8 -2 -9 9 -5 10 4 17 1 17 -6 0 -8 4 -6 10 3 9 13 10 13 10 0 0 -13 1 -13 10
0 9 13 10 13 10 0 0 -13 1 -13 10 0 8 12 10 12 11 -5 0 -11 3 -14 6 -7 3 8 11
5 25 -10 11 -13 17 -17 13 -10 -3 6 -1 12 4 12 6 0 11 -6 11 -12 0 -10 3 -9 9
1 7 11 10 11 15 0 5 -11 7 -11 12 -1 3 6 10 12 15 12 6 0 7 -5 3 -11 -4 -7 1
-7 16 1 15 8 20 8 16 1 -4 -6 -3 -11 3 -11 5 0 12 6 14 13 4 9 8 8 16 -3 10
-13 11 -13 11 0 0 13 1 13 11 0 8 -11 12 -12 16 -2 2 6 9 12 14 12 6 0 7 -5 3
-11 -4 -7 1 -7 16 1 15 8 20 8 16 1 -4 -6 -3 -11 3 -11 5 0 12 6 14 13 4 9 8
9 15 -2 8 -11 10 -11 15 0 4 10 6 10 6 2 1 -7 6 -13 11 -13 6 0 9 3 9 8 -5 27
3 34 31 30 17 -3 30 0 30 5 0 5 8 3 17 -4 9 -8 14 -9 10 -3 -3 6 3 18 14 27
13 11 19 13 19 4 0 -8 4 -7 10 3 8 12 10 12 10 1 0 -11 3 -11 17 0 15 12 16
12 8 -1 -8 -13 -7 -13 8 -1 12 9 17 10 17 2 0 -8 4 -8 14 1 8 7 12 16 9 21 -2
4 1 7 6 7 6 0 20 9 31 20 11 11 20 16 20 10 0 -5 7 -7 15 -4 8 4 12 10 9 15
-3 5 2 9 10 9 9 0 16 5 16 10 0 7 6 7 20 0 16 -9 19 -8 13 6 -4 12 -3 15 5 10
7 -4 12 -1 12 9 0 8 11 21 25 27 15 7 24 17 21 25 -3 8 -1 11 4 8 6 -3 10 -2
10 3 0 5 11 15 25 22 15 8 23 20 20 27 -2 8 0 11 5 8 6 -3 10 -1 10 5 0 6 3 9
8 7 9 -5 42 30 35 37 -4 3 -2 6 4 6 6 0 9 8 6 19 -3 13 2 20 19 25 19 5 21 8
8 17 -11 8 -12 12 -2 16 6 2 10 9 6 14 -3 5 2 9 11 9 8 0 20 11 27 25 6 13 14
22 18 20 4 -2 7 2 7 10 0 8 -5 15 -11 15 -6 0 -4 5 4 10 13 9 13 10 0 10 -12
1 -12 3 2 14 10 7 15 16 11 20 -4 3 2 13 13 21 10 8 14 15 8 15 -7 0 -9 11 -6
25 4 23 14 30 36 26 5 -1 4 4 -2 12 -9 10 -9 16 0 25 9 9 9 12 -1 12 -11 0
-11 3 0 16 10 13 10 17 -1 24 -10 6 -8 13 9 31 23 25 30 85 9 74 -7 -4 -4 1 6
9 15 12 16 16 5 16 -8 0 -10 3 -4 8 11 8 12 43 1 60 -4 7 1 9 15 7 12 -2 19
-2 15 2 -3 3 -1 12 5 20 9 10 8 13 -2 13 -9 0 -10 3 -4 8 13 9 18 32 7 32 -4
0 -8 9 -8 20 0 11 4 20 9 20 5 0 5 6 -2 13 -8 10 -7 17 1 25 9 9 9 12 -2 12
-13 0 -13 2 0 10 13 9 13 10 0 10 -13 0 -13 1 0 10 13 8 13 10 1 10 -12 0 -12
3 -3 12 9 9 8 16 -5 30 -16 18 -16 19 3 13 18 -6 18 -6 0 9 -10 8 -15 20 -10
27 4 7 3 10 -3 6 -6 -4 -14 0 -17 9 -3 8 -2 12 4 9 6 -3 10 -1 10 4 0 6 -5 11
-10 11 -7 0 -7 6 -1 18 6 11 6 24 0 35 -7 12 -6 17 2 17 7 0 4 7 -7 16 -10 8
-13 13 -6 9 6 -3 12 -2 12 3 0 6 -7 13 -16 16 -9 3 -14 12 -11 20 3 7 0 19 -6
25 -8 8 -7 11 4 11 11 0 12 2 0 9 -9 6 -10 11 -2 15 7 4 7 15 1 30 -5 13 -6
27 -2 32 4 4 1 4 -6 0 -7 -4 -9 -12 -6 -18 5 -7 2 -8 -5 -3 -7 4 -11 16 -8 26
3 11 0 19 -6 19 -8 0 -7 4 2 9 9 6 10 11 3 15 -6 4 -8 14 -5 23 4 10 2 14 -4
10 -21 -13 -36 25 -20 51 5 7 4 12 -2 12 -6 0 -10 6 -8 13 1 6 -4 11 -10 10
-16 -4 -17 9 -3 25 6 6 7 10 4 7 -14 -10 -49 47 -45 73 1 6 -6 12 -16 12 -15
0 -16 2 -3 10 12 8 12 10 1 10 -9 0 -12 9 -9 30 3 17 0 30 -4 30 -14 0 -38 27
-31 34 4 3 -2 6 -12 6 -15 0 -16 2 -4 17 10 11 10 14 2 9 -10 -5 -13 3 -13 29
0 30 -3 36 -16 31 -8 -3 -13 -2 -10 3 3 4 -2 17 -10 27 -9 10 -12 13 -8 5 5
-10 3 -12 -5 -7 -7 4 -11 15 -9 24 3 18 -36 62 -55 62 -8 0 -8 3 1 9 11 7 10
9 -3 15 -9 3 -13 11 -9 17 4 8 3 9 -4 5 -11 -7 -14 -3 -16 27 -1 6 -17 26 -36
42 -54 46 -60 53 -60 64 0 6 -7 11 -16 11 -9 0 -18 9 -21 21 -4 16 -8 17 -14
7 -6 -9 -9 -7 -9 10 0 19 -10 27 -32 23 -4 0 -4 7 -1 16 4 11 3 14 -5 9 -8 -4
-12 0 -13 11 0 16 -1 16 -9 -2 -7 -18 -8 -19 -15 -3 -4 10 -11 15 -16 12 -5
-3 -9 2 -9 11 0 10 -5 13 -11 9 -8 -5 -10 1 -7 18 3 18 0 24 -15 25 -10 1 -27
11 -36 22 -10 11 -21 18 -25 14 -3 -3 -6 1 -6 11 0 9 -4 15 -9 12 -5 -3 -12 2
-15 11 -6 15 -8 15 -16 3 -7 -11 -10 -12 -10 -2 0 7 -5 10 -10 7 -6 -4 -9 -3
-8 2 2 4 0 8 -3 8 -3 0 -13 6 -22 14 -10 7 -17 10 -17 5 0 -5 -7 2 -16 14 -13
19 -18 21 -32 10 -13 -11 -15 -10 -9 5 5 14 0 19 -23 24 -17 3 -30 11 -30 19
0 7 -9 16 -20 19 -11 4 -18 10 -15 15 3 5 -14 10 -37 12 -29 2 -43 8 -43 17 0
8 -8 15 -18 17 -9 1 -15 -1 -13 -5 3 -4 -4 -7 -14 -7 -12 0 -17 6 -15 18 2 10
1 17 -3 17 -4 -1 -26 -1 -50 0 -40 1 -43 3 -37 24 3 12 3 18 -2 12 -7 -9 -23
-11 -48 -5 -5 1 -14 2 -19 1 -5 -1 -3 6 4 16 8 10 11 15 6 11 -5 -4 -17 -3
-27 3 -13 7 -19 6 -19 -1 0 -6 -5 -8 -11 -5 -6 4 -24 8 -40 9 -17 1 -35 9 -40
17 -5 8 -9 10 -9 4 0 -5 -4 -4 -9 4 -8 12 -12 12 -25 2 -11 -10 -16 -10 -16
-2 0 9 -5 9 -21 0 -12 -6 -19 -7 -15 -1 3 5 -1 13 -10 16 -8 3 -13 9 -11 13 3
5 -6 8 -19 8 -13 0 -24 -4 -24 -10 0 -5 -5 -3 -10 5 -7 12 -10 12 -10 1 0 -9
-6 -11 -17 -6 -10 4 -30 7 -45 6 -16 -1 -28 4 -28 11 0 6 -3 8 -7 5 -3 -4 -15
1 -26 10 -15 13 -18 14 -12 3 8 -13 7 -13 -8 -1 -9 7 -17 9 -17 3 0 -12 -33
-10 -42 3 -5 6 -8 5 -8 -4 0 -10 -4 -11 -12 -3 -19 15 -30 15 -39 0 -7 -11 -9
-11 -9 1 0 11 -3 11 -15 1 -12 -10 -15 -10 -15 1 0 10 -3 10 -12 1 -7 -7 -17
-12 -23 -12 -5 0 -3 5 5 11 11 8 6 9 -20 5 -19 -3 -29 -3 -21 0 26 12 -29 33
-61 23 -19 -5 -28 -4 -28 4 0 8 -3 7 -9 -2 -7 -11 -9 -11 -14 0 -4 12 -7 11
-16 -1 -10 -13 -11 -13 -11 0 0 9 -3 11 -8 5 -8 -12 -43 -12 -61 -1 -7 5 -10
2 -9 -6 2 -7 -7 -14 -20 -16 -14 -2 -20 -8 -16 -15 5 -9 3 -9 -6 0 -9 8 -19 9
-31 3 -12 -7 -20 -6 -24 0 -5 8 -12 7 -23 -2 -13 -11 -14 -11 -7 2 7 12 6 13
-7 3 -12 -11 -18 -9 -33 7 -10 12 -25 18 -32 16 -7 -3 -15 0 -19 6 -4 7 -10 6
-16 -3 -7 -10 -8 -8 -5 8 4 17 1 21 -14 18 -11 -2 -19 2 -19 8 0 7 -4 6 -10
-3 -8 -12 -10 -12 -10 -1 0 11 -3 11 -15 1 -10 -8 -15 -9 -15 -2 0 6 -11 22
-24 35 -14 14 -22 27 -19 31 3 3 -5 3 -17 1 -18 -3 -21 -2 -12 7 8 8 5 22 -12
53 -17 30 -21 46 -14 58 6 11 5 17 -2 17 -5 0 -10 8 -10 18 0 15 -2 15 -10 2
-8 -11 -10 -7 -10 20 0 19 0 44 0 55 -1 70 2 95 12 89 7 -5 8 -2 2 7 -5 8 -10
32 -11 54 -1 22 -5 45 -7 52 -3 7 0 13 7 13 8 0 6 4 -3 10 -8 5 -10 10 -5 10
6 0 10 12 9 28 -1 15 -7 26 -13 24 -6 -1 -11 3 -11 9 0 5 -6 7 -12 3 -10 -6
-10 -5 -1 7 10 12 9 20 -4 39 -9 13 -11 20 -5 16 6 -3 14 -2 17 4 4 6 3 10 -2
9 -20 -3 -34 2 -28 11 3 6 0 10 -7 10 -9 0 -9 3 2 10 13 9 13 10 0 10 -13 0
-13 1 0 10 12 8 12 10 1 10 -8 0 -11 3 -7 7 3 4 -4 13 -16 20 -13 7 -17 12 -9
13 10 0 11 3 3 13 -7 8 -7 18 -2 27 6 10 2 17 -13 25 -17 8 -21 18 -19 43 3
30 -3 37 -30 33 -8 -1 -5 20 5 37 5 6 4 12 -1 12 -6 0 -9 8 -8 18 0 10 -6 16
-16 16 -10 -1 -15 2 -12 8 3 5 0 16 -8 25 -8 10 -8 14 -1 10 6 -4 15 -3 18 3
4 6 3 10 -2 9 -20 -3 -34 2 -28 11 3 6 0 10 -7 10 -10 0 -10 2 0 8 10 7 8 13
-6 30 -11 12 -22 19 -25 16 -3 -3 -3 3 0 14 3 14 -2 24 -17 32 -12 6 -19 14
-16 17 8 9 -15 34 -25 27 -5 -3 -6 3 -2 12 4 12 3 15 -5 10 -7 -4 -12 -2 -12
4 0 6 -6 8 -12 4 -10 -5 -10 -4 -1 6 16 17 5 40 -15 32 -15 -5 -16 -4 -2 13 9
11 10 16 3 11 -8 -4 -13 -2 -13 4 0 7 -6 10 -14 7 -11 -4 -13 1 -11 24 3 17 0
27 -5 24 -6 -4 -10 1 -10 10 0 9 -4 13 -10 10 -5 -3 -10 1 -10 9 0 9 -7 16
-16 16 -8 0 -12 5 -9 10 3 6 -1 10 -10 10 -11 0 -15 5 -11 16 3 8 2 12 -3 9
-5 -3 -12 -1 -16 5 -3 5 -1 10 5 10 8 0 8 6 0 21 -8 15 -15 17 -24 10 -9 -7
-16 -5 -26 9 -7 10 -17 17 -20 15 -4 -2 -7 2 -8 10 -1 8 -3 22 -4 30 -1 8 -5
12 -10 9 -4 -3 -8 3 -8 12 0 10 -3 14 -6 11 -7 -7 -44 30 -44 45 0 4 -7 8 -15
8 -8 0 -15 5 -15 11 0 5 -4 7 -10 4 -6 -3 -7 1 -4 9 4 11 0 16 -11 16 -11 0
-15 5 -12 14 4 10 1 13 -9 9 -8 -3 -25 4 -38 16 -12 12 -26 18 -31 14 -4 -5
-5 0 -2 10 4 9 2 17 -4 17 -6 0 -7 5 -4 10 11 17 -5 32 -21 19 -11 -9 -14 -9
-14 0 0 7 -4 9 -10 6 -5 -3 -10 1 -10 9 0 14 -11 20 -32 17 -4 0 -5 5 -2 13 6
15 -44 52 -65 48 -7 -2 -10 1 -6 7 5 10 -7 15 -27 12 -5 0 -8 4 -8 9 0 6 -7
10 -15 10 -8 0 -15 6 -15 13 0 8 -4 7 -10 -3 -5 -8 -10 -10 -10 -4 0 5 -7 19
-16 30 -8 10 -13 12 -9 4 4 -8 -3 -4 -15 10 -12 14 -19 19 -15 13 4 -9 1 -11
-9 -7 -9 3 -14 10 -11 14 3 5 -3 11 -13 14 -11 4 -31 20 -47 37 -19 22 -30 28
-35 19 -5 -8 -11 -7 -24 5 -9 9 -13 22 -9 28 4 7 -1 6 -10 -2 -14 -11 -17 -11
-17 0 0 11 -2 11 -10 -1 -8 -12 -10 -10 -10 9 0 13 -3 21 -6 18 -4 -3 -15 -2
-25 3 -12 7 -19 6 -22 -3 -3 -7 -6 -5 -6 6 -1 15 -12 21 -33 18 -4 0 -5 8 -3
19 2 11 1 19 -3 19 -27 -4 -92 2 -89 9 3 4 -1 13 -9 20 -11 10 -14 10 -14 0 0
-9 -3 -9 -10 2 -8 13 -10 13 -10 0 0 -10 -5 -7 -16 8 -8 12 -19 20 -23 18 -12
-8 -52 24 -45 36 4 6 -2 6 -15 -1 -13 -7 -21 -8 -21 -2 0 6 -7 8 -15 5 -10 -4
-15 0 -15 12 0 16 -2 17 -10 4 -5 -8 -10 -10 -10 -4 0 16 -38 25 -43 10 -3 -6
-10 1 -16 17 -6 15 -13 27 -16 27 -4 0 -3 -6 1 -12 5 -9 2 -9 -9 1 -14 11 -17
11 -17 0 0 -12 -2 -12 -9 0 -6 10 -10 10 -16 1 -5 -7 -10 -8 -14 -2 -3 5 -25
19 -49 30 -35 17 -44 18 -48 7 -5 -11 -10 -12 -24 -3 -10 6 -16 18 -12 26 4
12 1 12 -16 3 -17 -9 -22 -9 -22 0 0 8 -4 8 -15 -1 -12 -10 -15 -10 -15 1 0
12 -2 12 -9 0 -7 -11 -9 -11 -14 0 -5 12 -7 11 -16 -1 -8 -11 -13 -12 -22 -3
-8 8 -18 9 -30 3 -12 -7 -20 -6 -25 1 -4 8 -9 7 -16 -2 -7 -10 -8 -8 -5 8 l5
22 -179 0 c-157 0 -180 -2 -190 -17 -10 -16 -10 -16 -5 1 3 9 1 17 -4 17 -6 0
-10 -10 -10 -22z m1624 -526 c3 -5 -1 -9 -9 -9 -8 0 -12 4 -9 9 3 4 7 8 9 8 2
0 6 -4 9 -8z m171 -162 c3 -5 1 -10 -4 -10 -6 0 -11 5 -11 10 0 6 2 10 4 10 3
0 8 -4 11 -10z m-3477 -315 c-3 -3 -9 2 -12 12 -6 14 -5 15 5 6 7 -7 10 -15 7
-18z m6437 -2145 c10 -11 16 -20 13 -20 -3 0 -13 9 -23 20 -10 11 -16 20 -13
20 3 0 13 -9 23 -20z m-4404 -2648 c7 11 9 11 9 -1 0 -8 7 -11 18 -9 11 3 23
-2 30 -13 10 -15 17 -17 37 -9 16 6 26 6 31 -1 4 -8 9 -7 15 2 7 12 9 12 9 0
0 -11 3 -11 16 -1 8 8 14 9 13 4 -4 -23 3 -31 28 -30 19 1 28 -4 28 -14 0 -8
5 -15 10 -16 23 -2 44 -17 38 -27 -4 -6 0 -8 10 -4 10 3 17 2 17 -4 0 -6 5 -7
10 -4 6 3 10 1 10 -5 0 -16 26 -40 35 -32 4 4 3 -2 -3 -13 -7 -15 -6 -23 3
-32 7 -6 16 -9 19 -6 3 4 6 -1 6 -9 0 -9 10 -18 22 -21 18 -5 19 -8 8 -21 -9
-12 -9 -16 -1 -16 7 0 9 -4 6 -10 -3 -5 2 -10 11 -10 10 0 15 -3 11 -6 -3 -3
-2 -17 3 -30 7 -17 6 -24 -2 -24 -7 0 -3 -7 8 -15 19 -15 19 -15 -1 -9 -12 3
-9 -1 8 -11 23 -14 26 -19 16 -37 -8 -16 -8 -19 1 -13 9 6 9 2 1 -14 -7 -11
-8 -21 -3 -21 5 0 9 -7 9 -15 0 -8 -4 -12 -9 -9 -4 3 -8 0 -8 -5 0 -6 4 -11 8
-11 5 0 9 -7 9 -15 0 -8 -4 -12 -9 -9 -4 3 -8 0 -8 -5 0 -6 6 -11 13 -12 8 0
8 -2 -2 -6 -11 -5 -11 -7 0 -14 12 -8 12 -11 -1 -19 -12 -7 -12 -12 -3 -21 9
-9 10 -16 2 -26 -9 -10 -8 -13 1 -13 10 0 10 -3 0 -15 -9 -11 -9 -15 -1 -15 9
0 9 -5 1 -20 -6 -11 -7 -20 -2 -20 4 0 8 -9 8 -20 0 -10 -2 -17 -4 -15 -7 6
-30 -19 -25 -27 2 -5 -1 -8 -8 -8 -8 0 -7 -5 2 -17 10 -11 10 -14 2 -9 -8 4
-13 1 -13 -9 0 -9 5 -13 11 -10 6 4 5 -2 -2 -14 -8 -12 -16 -16 -20 -10 -3 6
-9 1 -12 -10 -3 -12 -1 -24 4 -27 5 -3 7 -10 3 -15 -3 -5 -10 -7 -15 -3 -6 3
-13 -3 -16 -15 -3 -12 -11 -21 -19 -21 -7 0 -16 -5 -20 -12 -5 -7 -2 -9 7 -4
8 4 6 1 -3 -7 -10 -8 -14 -17 -10 -21 4 -4 0 -6 -8 -4 -8 2 -14 -2 -13 -9 2
-7 -3 -10 -11 -7 -7 3 -16 -2 -20 -11 -3 -9 -11 -13 -17 -9 -7 4 -9 3 -5 -4 8
-14 -22 -44 -36 -36 -6 4 -8 2 -5 -3 4 -6 0 -16 -7 -22 -10 -8 -16 -9 -21 -2
-4 7 -15 6 -34 -4 -16 -8 -32 -11 -36 -7 -5 4 -6 0 -2 -10 6 -16 -8 -19 -30
-5 -7 4 -16 0 -22 -10 -6 -10 -11 -12 -11 -5 0 6 -5 12 -11 12 -5 0 -7 -4 -4
-10 3 -5 1 -10 -5 -10 -6 0 -8 -5 -4 -12 5 -9 2 -9 -9 1 -14 11 -17 11 -17 0
-1 -9 -4 -8 -11 4 -10 18 -12 18 -30 1 -10 -9 -19 -12 -19 -6 0 8 -8 9 -22 3
-16 -6 -27 -3 -38 8 -8 10 -11 11 -6 4 6 -10 4 -12 -8 -7 -9 3 -16 12 -16 20
0 8 -5 14 -11 14 -5 0 -8 -4 -5 -9 11 -17 -58 1 -75 20 -12 14 -19 15 -27 7
-9 -9 -12 -9 -12 2 0 13 -2 13 -10 0 -9 -13 -10 -13 -11 0 -1 8 -1 18 0 22 0
4 -6 5 -14 2 -8 -4 -17 1 -21 10 -3 9 -12 16 -20 16 -8 0 -14 7 -14 16 0 8 -4
12 -10 9 -5 -3 -10 -2 -10 3 0 6 -20 31 -45 58 -33 35 -42 50 -33 56 9 6 7 10
-9 14 -13 4 -20 10 -17 15 3 5 0 9 -6 9 -6 0 -8 5 -4 12 4 6 0 16 -8 22 -19
15 -30 46 -16 46 6 0 5 6 -3 17 -12 15 -12 16 1 8 12 -6 13 -5 3 5 -9 10 -9
18 -1 34 10 19 10 20 -5 7 -14 -11 -17 -11 -18 0 -1 8 -1 17 0 22 0 4 -4 7
-10 7 -8 0 -8 5 1 15 10 12 10 15 -1 15 -11 0 -11 2 1 10 8 5 10 10 4 10 -14
0 -13 32 1 42 6 5 4 8 -5 8 -13 0 -13 1 0 10 8 5 10 10 5 10 -12 0 -13 40 -1
58 4 7 2 12 -5 12 -8 0 -8 4 1 15 7 8 8 15 3 15 -5 0 -10 7 -10 15 0 10 6 14
15 10 13 -5 13 -3 1 12 -8 9 -9 14 -3 10 13 -8 24 22 24 67 0 16 8 35 18 43
10 8 11 11 2 7 -13 -7 -13 -5 -1 9 7 9 10 17 5 17 -5 1 2 7 16 15 14 8 21 15
15 15 -5 0 -3 5 5 10 11 7 11 10 2 10 -7 0 -10 5 -7 10 4 6 12 7 18 4 7 -4 9
-4 5 1 -11 11 10 45 28 45 8 0 13 4 10 8 -3 5 6 15 19 22 13 7 22 16 20 20 -2
4 7 13 20 20 13 7 22 17 19 21 -2 4 1 11 7 15 8 4 9 3 5 -4 -10 -17 5 -15 18
2 6 8 18 16 26 18 18 4 39 21 34 29 -2 3 3 6 11 6 8 0 15 -5 15 -10 0 -5 7 -4
15 3 12 10 15 10 15 -1 0 -11 2 -11 10 1 9 13 10 13 10 0 0 -13 1 -13 10 0 8
12 10 12 10 1 0 -11 3 -11 17 0 14 12 16 12 9 -1 -4 -8 0 -6 8 4 9 11 16 25
16 30 0 6 5 4 10 -4 9 -13 10 -13 11 0 0 10 3 8 9 -5 8 -19 9 -19 9 3 1 22 2
22 17 7 14 -13 19 -14 25 -3z m-1211 -1952 c0 -3 9 -6 20 -6 11 0 20 5 20 10
0 6 5 5 12 -2 8 -8 15 -9 25 -1 10 9 13 8 13 -2 0 -11 2 -11 10 1 6 9 13 11
18 5 10 -14 42 -15 42 -1 0 6 5 3 11 -7 6 -9 14 -15 19 -12 5 3 21 -2 35 -11
17 -11 25 -13 25 -4 0 7 7 4 18 -7 9 -10 13 -12 7 -3 -9 13 -8 13 8 1 9 -7 17
-20 17 -28 0 -8 5 -11 10 -8 6 3 10 -1 10 -9 0 -9 5 -16 11 -16 5 0 7 5 3 11
-3 6 9 3 27 -7 33 -17 34 -17 19 1 -14 18 -13 18 12 0 15 -11 28 -26 28 -32 0
-12 13 -17 33 -14 5 1 6 -3 2 -8 -3 -6 3 -18 14 -28 11 -9 17 -21 14 -27 -3
-6 -3 -8 2 -4 12 11 38 -21 31 -38 -3 -8 -2 -12 4 -9 6 3 10 -1 10 -11 0 -9 8
-23 18 -31 10 -8 11 -11 2 -7 -12 7 -13 5 -3 -8 7 -8 10 -18 6 -22 -4 -4 1 -4
11 0 16 6 18 3 14 -20 -5 -23 -1 -29 20 -37 15 -6 22 -13 17 -17 -12 -8 -15
-53 -3 -46 4 3 8 1 8 -5 0 -5 -6 -12 -12 -14 -10 -4 -9 -8 2 -16 13 -10 13
-11 0 -11 -13 0 -13 -1 0 -11 11 -8 12 -12 3 -16 -7 -2 -13 -9 -13 -14 0 -6 5
-7 11 -3 7 4 7 -1 -1 -16 -8 -15 -8 -20 -1 -16 6 4 11 3 11 -3 0 -5 -6 -12
-12 -15 -10 -5 -10 -7 -1 -12 8 -4 9 -13 3 -29 -10 -26 9 -42 29 -22 8 8 11 8
11 -2 0 -11 3 -11 15 -1 12 10 15 10 15 -4 0 -8 10 -18 23 -20 58 -12 77 -13
77 -2 0 6 5 4 10 -4 7 -11 10 -11 10 -2 0 10 5 10 20 2 16 -9 20 -8 20 5 0 13
12 19 33 16 4 0 7 4 7 9 0 6 5 10 11 10 5 0 8 -3 6 -7 -3 -5 6 -9 20 -10 19
-1 22 1 12 8 -11 7 -8 9 9 9 12 0 25 7 29 16 5 13 7 13 14 2 7 -11 11 -10 19
2 9 13 10 13 10 0 0 -12 2 -12 8 -2 5 7 15 10 23 7 10 -4 20 4 29 20 7 14 16
23 18 20 3 -3 11 3 18 13 8 10 13 12 14 5 0 -7 5 -13 11 -13 5 0 7 5 4 10 -3
6 -1 10 5 10 6 0 9 4 5 9 -3 6 4 8 16 6 15 -3 19 0 15 10 -3 9 0 15 9 15 7 0
17 9 20 20 4 11 10 18 15 15 5 -3 13 7 16 22 4 15 14 34 23 41 13 11 13 12 1
6 -8 -4 -4 5 9 19 13 14 27 25 31 24 5 -1 7 2 7 6 -1 5 6 13 15 18 9 5 15 15
12 22 -2 7 3 21 12 32 8 11 13 14 9 8 -3 -7 -1 -13 4 -13 6 0 11 7 11 16 0 9
5 12 12 8 7 -5 9 -2 5 8 -7 21 3 31 19 17 8 -7 14 -6 20 2 5 8 3 10 -7 4 -8
-5 -10 -4 -6 0 12 13 37 15 37 2 0 -8 4 -7 12 1 8 8 15 9 25 1 8 -7 13 -8 13
-1 0 12 32 10 43 -3 4 -6 10 -5 16 4 6 9 11 10 15 2 4 -6 12 -9 17 -6 5 4 9 0
9 -8 0 -8 8 -21 18 -28 15 -13 16 -12 3 4 -12 15 -12 17 3 11 9 -3 16 -13 16
-21 0 -21 47 -65 53 -50 3 7 6 2 6 -11 1 -13 5 -20 11 -17 6 3 10 1 10 -5 0
-6 5 -8 12 -4 7 4 8 3 4 -5 -4 -6 -12 -9 -17 -5 -6 3 -5 -3 2 -14 8 -12 19
-18 28 -14 13 5 14 3 4 -9 -7 -9 -9 -20 -3 -29 5 -9 5 -19 -2 -27 -8 -10 -7
-13 3 -13 11 0 11 -2 -1 -10 -12 -8 -12 -10 -1 -10 11 0 11 -3 0 -17 -10 -11
-10 -14 -1 -9 20 12 13 -2 -15 -30 -16 -15 -20 -22 -11 -15 15 11 16 10 5 -18
-6 -17 -13 -28 -16 -26 -5 5 -30 -26 -31 -38 0 -5 4 -5 10 -2 6 3 7 -1 4 -9
-3 -9 -11 -14 -17 -13 -7 1 -11 -4 -9 -12 2 -8 -3 -11 -12 -8 -9 4 -15 3 -15
-1 3 -18 -2 -33 -9 -28 -11 7 -12 -26 -1 -40 5 -7 3 -11 -6 -11 -8 0 -11 5 -8
10 3 6 1 7 -5 3 -7 -4 -12 -14 -12 -22 0 -9 -5 -12 -12 -8 -8 5 -9 2 -5 -9 3
-9 3 -16 -1 -16 -17 3 -35 -2 -29 -7 9 -9 -21 -36 -32 -29 -5 3 -12 -4 -16
-15 -4 -11 -11 -17 -17 -14 -7 5 -9 1 -5 -9 5 -12 -2 -18 -28 -23 -19 -3 -32
-10 -29 -15 3 -5 0 -9 -6 -9 -6 0 -8 -5 -5 -10 3 -6 -1 -13 -9 -16 -9 -3 -14
-9 -11 -13 2 -4 -6 -7 -18 -7 -14 1 -21 -4 -19 -13 2 -9 -4 -12 -18 -8 -13 3
-23 0 -27 -9 -3 -8 -9 -11 -14 -8 -5 3 -9 0 -9 -6 0 -7 -7 -10 -14 -7 -10 4
-13 1 -9 -9 3 -9 -1 -14 -12 -14 -9 0 -14 -4 -11 -8 3 -5 -1 -9 -9 -9 -8 0
-15 5 -15 11 0 6 -5 4 -10 -4 -9 -13 -10 -13 -10 0 -1 12 -4 11 -15 -4 -8 -10
-12 -22 -10 -26 2 -4 -8 -6 -23 -4 -27 3 -55 -12 -47 -25 2 -4 -2 -8 -10 -8
-8 0 -15 5 -15 10 0 5 -7 4 -15 -3 -10 -8 -15 -9 -15 -1 0 7 -8 8 -24 1 -13
-5 -27 -6 -31 -2 -4 4 -6 2 -5 -3 1 -6 2 -17 1 -25 -1 -13 -2 -13 -11 0 -9 13
-10 13 -10 0 0 -13 -1 -13 -10 0 -5 8 -10 10 -10 5 0 -6 -15 -10 -34 -10 -27
1 -33 -2 -28 -14 3 -9 2 -13 -3 -9 -4 4 -15 2 -23 -5 -13 -10 -14 -9 -7 3 8
13 7 13 -8 1 -14 -11 -17 -11 -17 0 0 11 -2 11 -10 -1 -8 -12 -10 -12 -10 -1
0 10 -3 11 -14 2 -11 -9 -16 -9 -21 0 -6 8 -10 7 -16 -2 -8 -12 -11 -11 -19 1
-9 13 -10 13 -10 0 0 -12 -2 -12 -9 -1 -6 9 -11 10 -15 2 -5 -8 -13 -8 -27 -1
-14 8 -19 7 -19 -2 0 -9 -3 -9 -12 0 -9 9 -15 9 -27 0 -9 -7 -13 -9 -9 -4 4 5
2 14 -5 21 -17 16 -67 25 -67 11 0 -6 -5 -4 -10 4 -6 9 -10 11 -10 3 0 -7 -7
-10 -16 -6 -8 3 -13 11 -10 18 3 8 -2 12 -12 10 -9 -1 -20 3 -24 9 -5 7 -12 4
-22 -9 -11 -15 -11 -22 -3 -27 8 -5 7 -8 -3 -8 -12 0 -12 -2 -1 -9 9 -6 10
-10 2 -16 -9 -5 -9 -10 -1 -20 9 -11 7 -12 -11 -8 -19 5 -21 3 -17 -20 3 -16
1 -27 -6 -27 -6 0 -4 -5 4 -10 12 -8 12 -10 1 -10 -11 0 -11 -3 -1 -15 7 -8 8
-15 3 -15 -6 0 -8 -11 -5 -25 3 -18 0 -25 -9 -23 -7 2 -13 -1 -14 -7 0 -5 -4
-16 -8 -22 -5 -8 -4 -13 3 -13 7 0 8 -5 3 -12 -4 -7 -8 -17 -8 -23 -1 -5 -6
-9 -13 -8 -7 2 -11 0 -11 -5 3 -20 -2 -32 -13 -29 -8 1 -12 -6 -10 -17 2 -10
-1 -16 -6 -12 -5 3 -9 -1 -9 -9 0 -8 4 -15 9 -15 4 0 -2 -15 -14 -34 -13 -19
-25 -33 -28 -31 -3 2 -11 -5 -18 -16 -7 -10 -9 -19 -4 -19 13 0 6 -50 -8 -63
-12 -10 -12 -8 0 8 13 18 13 19 -3 5 -9 -8 -18 -25 -20 -38 -4 -29 -53 -85
-67 -77 -6 4 -10 3 -9 -2 4 -21 -2 -34 -13 -27 -7 5 -9 2 -5 -9 4 -11 2 -14
-9 -10 -10 4 -14 -2 -14 -21 0 -15 -7 -29 -15 -32 -8 -4 -12 -10 -9 -15 3 -5
0 -9 -6 -9 -6 0 -8 -4 -5 -10 3 -6 -1 -7 -9 -4 -11 4 -16 0 -16 -11 0 -11 -5
-15 -14 -12 -11 4 -13 1 -9 -10 4 -11 2 -14 -5 -9 -10 6 -16 -4 -14 -25 1 -3
-6 -6 -14 -7 -7 -1 -21 -3 -29 -4 -8 -1 -15 -5 -15 -10 0 -4 -7 -8 -16 -8 -8
0 -12 -4 -9 -10 6 -9 -8 -14 -28 -11 -4 0 -6 -2 -6 -6 3 -19 -2 -33 -12 -33
-5 0 -7 6 -3 13 5 8 2 8 -9 -2 -11 -9 -17 -10 -17 -2 0 6 -5 11 -11 11 -5 0
-7 -4 -4 -10 3 -5 1 -10 -5 -10 -6 0 -8 -5 -5 -10 4 -7 -3 -9 -18 -6 -18 3
-24 0 -23 -12 0 -10 -5 -16 -13 -14 -8 2 -18 -3 -23 -10 -7 -10 -11 -10 -14
-1 -4 10 -8 10 -19 0 -7 -7 -11 -15 -8 -19 2 -4 -9 -6 -26 -4 -20 2 -32 -2
-36 -12 -4 -11 -8 -12 -19 -3 -15 13 -146 20 -146 8 0 -4 -9 -3 -20 3 -15 8
-20 8 -20 -2 0 -9 -3 -9 -10 2 -8 12 -10 12 -10 1 0 -11 -3 -11 -15 -1 -12 10
-15 10 -15 -1 0 -8 -9 -4 -21 11 -11 14 -17 18 -13 10 7 -13 5 -13 -8 -2 -10
8 -14 20 -11 29 4 10 2 14 -4 10 -18 -11 -43 4 -43 25 0 17 -2 18 -15 8 -13
-11 -14 -10 -10 3 4 9 -3 21 -17 31 -15 11 -17 16 -8 16 11 1 10 4 -4 15 -20
15 -20 15 0 16 14 0 15 2 4 6 -8 4 -21 12 -28 20 -11 11 -11 13 0 14 8 0 9 2
2 5 -7 3 -9 18 -4 44 4 24 3 43 -4 51 -8 9 -8 10 2 5 6 -4 12 -2 12 3 0 6 8
11 18 11 14 0 15 2 2 10 -13 8 -13 10 0 10 10 0 11 3 3 11 -14 14 10 44 26 34
6 -3 8 4 6 16 -3 12 0 29 5 38 7 12 9 12 10 2 0 -10 3 -11 13 -2 8 6 17 8 20
4 4 -3 7 1 7 10 0 9 7 17 16 17 8 0 13 3 11 8 -3 4 1 13 9 20 11 10 14 10 14
0 0 -8 3 -9 8 -3 4 6 14 10 22 10 8 0 18 -4 22 -10 5 -6 8 -4 8 4 0 11 3 12
12 3 8 -8 17 -8 31 -1 15 9 18 8 11 -3 -6 -11 -5 -11 9 1 14 11 17 11 17 0 0
-12 2 -12 9 0 6 10 10 10 16 1 6 -9 10 -9 16 1 6 10 9 10 9 2 0 -7 7 -10 15
-7 8 4 12 10 9 15 -3 5 2 9 11 9 9 0 13 4 10 10 -3 5 0 7 9 4 8 -3 24 4 36 16
11 11 25 18 30 15 5 -3 7 1 4 9 -4 10 1 15 13 15 44 1 50 5 47 28 -1 15 5 27
18 34 11 6 17 17 14 24 -3 10 0 12 11 8 13 -5 15 -1 11 20 -3 15 -2 25 2 22
12 -7 35 29 32 50 -2 15 -1 16 6 7 7 -11 10 -10 16 3 3 9 4 21 0 26 -3 5 1 9
8 9 7 0 19 9 26 21 8 12 9 18 3 14 -6 -3 -11 -1 -11 5 0 7 9 14 21 17 16 4 17
8 7 14 -10 7 -10 9 0 9 7 0 12 13 12 30 0 22 6 33 23 40 12 5 16 9 9 9 -8 1
-10 6 -5 14 11 18 13 38 2 31 -5 -3 -9 2 -9 10 0 9 -7 16 -15 16 -8 0 -15 5
-15 10 0 6 -7 10 -15 10 -8 0 -24 9 -35 20 -12 12 -20 15 -20 8 0 -9 -4 -8
-10 2 -9 13 -10 13 -10 0 0 -8 -10 0 -21 18 -23 35 -32 42 -22 15 4 -11 3 -14
-5 -9 -7 4 -12 14 -12 22 0 8 -4 15 -10 15 -5 1 -14 2 -19 3 -5 0 -13 5 -18
10 -5 5 -2 6 7 2 8 -4 7 -1 -3 7 -10 8 -14 17 -9 18 5 2 0 13 -11 24 -11 11
-16 13 -12 5 5 -9 5 -12 -1 -7 -5 5 -10 13 -10 18 -1 5 -2 14 -3 19 0 6 -8 10
-16 10 -8 0 -15 5 -15 11 0 5 5 7 11 3 8 -4 7 0 -1 15 -6 12 -15 19 -21 16 -5
-4 -9 1 -9 10 0 8 -10 20 -22 25 -13 5 -18 9 -13 9 13 1 15 41 3 41 -5 0 -4 9
2 20 8 15 8 20 -2 20 -11 0 -10 2 0 9 10 6 10 10 -1 20 -9 7 -13 21 -9 33 3
13 1 19 -5 15 -7 -5 -12 10 -15 38 -2 26 1 45 7 45 5 0 3 5 -5 10 -11 7 -11
10 -2 10 10 0 10 5 2 20 -8 15 -8 20 2 20 10 0 10 2 -1 9 -11 7 -10 11 5 20
11 6 13 11 6 11 -7 0 -10 5 -7 10 4 6 12 7 18 4 7 -4 9 -4 5 1 -4 4 -3 16 3
26 7 14 6 19 -2 19 -8 0 -8 4 1 15 10 12 10 15 -1 15 -11 0 -11 2 1 10 12 8
12 10 1 10 -10 0 -11 3 -2 13 6 8 7 18 3 22 -4 5 -2 5 5 1 13 -7 28 28 19 43
-3 5 2 8 12 7 9 0 17 6 17 14 0 8 9 20 20 27 11 7 16 12 11 13 -5 0 -2 8 5 17
12 14 12 16 -1 9 -8 -4 -7 -1 4 8 10 8 15 19 11 25 -4 7 0 8 11 4 12 -4 15 -3
10 5 -6 11 5 16 26 13 4 0 5 5 2 13 -3 8 0 17 7 22 8 5 10 3 5 -7 -4 -8 1 -3
12 10 11 13 24 21 31 17 6 -4 11 -2 11 4 0 6 5 8 10 5 6 -3 10 1 10 9 0 21 21
31 31 15 6 -10 13 -7 30 15 14 18 25 24 32 17 11 -11 39 -3 31 10 -3 5 0 9 6
9 6 0 9 4 6 8 -2 4 4 8 15 8 10 0 19 -3 19 -6z m-2075 -360 c-4 -6 5 -10 20
-10 18 0 24 4 20 13 -4 6 -1 5 7 -3 7 -9 21 -14 32 -12 11 2 16 0 12 -7 -5 -7
-1 -9 8 -5 10 4 16 1 16 -7 0 -11 3 -11 10 1 7 11 10 11 10 2 0 -9 5 -10 18
-3 21 11 36 4 45 -22 4 -10 11 -16 16 -13 15 9 71 14 66 6 -8 -12 50 -67 66
-61 11 3 12 1 2 -10 -10 -12 -7 -15 15 -17 15 -1 29 -7 30 -12 2 -6 8 -7 14
-4 6 4 5 -3 -1 -15 -10 -18 -9 -22 6 -28 26 -10 67 -53 51 -54 -10 0 -10 -2 1
-6 11 -5 11 -7 0 -14 -11 -7 -9 -9 5 -9 11 0 16 -3 13 -7 -4 -3 1 -12 11 -19
10 -8 12 -13 5 -14 -7 0 -10 -7 -6 -16 3 -8 12 -13 20 -9 11 3 13 1 9 -10 -3
-8 0 -15 6 -15 7 0 6 -5 -2 -15 -10 -12 -10 -15 1 -15 11 0 11 -2 -1 -10 -13
-9 -13 -10 0 -10 13 0 13 -1 0 -10 -13 -9 -13 -10 0 -10 13 0 13 -1 0 -10 -13
-9 -13 -10 0 -10 12 0 12 -2 1 -9 -9 -6 -10 -11 -2 -15 6 -4 8 -12 5 -18 -4
-6 0 -16 8 -22 16 -12 29 -96 15 -96 -4 0 -5 -5 -2 -10 3 -6 -4 -14 -17 -19
-13 -6 -16 -10 -8 -10 11 -1 11 -4 2 -13 -8 -8 -9 -15 -1 -25 9 -10 8 -13 -2
-13 -11 0 -11 -2 1 -10 13 -9 13 -10 0 -10 -13 0 -13 -1 0 -10 13 -9 13 -10 0
-10 -13 0 -13 -1 0 -10 13 -9 13 -10 0 -10 -13 0 -13 -1 0 -10 12 -8 12 -10 1
-10 -11 0 -11 -3 0 -17 10 -11 10 -14 2 -9 -8 4 -13 2 -13 -4 0 -6 -4 -8 -10
-5 -6 4 -10 -6 -10 -23 0 -20 -8 -35 -22 -44 -19 -13 -21 -18 -10 -31 10 -12
10 -17 1 -23 -8 -4 -9 -3 -5 4 4 7 2 12 -3 12 -10 0 -12 -5 -11 -25 1 -10 -25
-33 -35 -32 -5 1 -9 -6 -9 -15 1 -10 -1 -17 -5 -16 -19 2 -31 -3 -26 -12 3 -5
-2 -11 -12 -11 -43 -3 -48 -5 -46 -16 2 -7 -4 -13 -13 -13 -8 0 -12 -4 -9 -10
3 -5 1 -10 -5 -10 -6 0 -8 -4 -5 -10 4 -6 -1 -7 -11 -3 -13 5 -16 2 -12 -9 4
-10 0 -14 -15 -13 -12 1 -26 -3 -30 -9 -6 -8 -10 -7 -14 2 -4 10 -8 10 -21 0
-12 -10 -14 -10 -8 0 4 6 2 12 -3 12 -6 0 -11 -4 -11 -10 0 -5 -7 -7 -15 -3
-9 3 -15 2 -14 -3 1 -5 1 -16 0 -24 -1 -13 -2 -13 -11 0 -7 11 -10 11 -10 2 0
-10 -5 -10 -20 -2 -14 8 -20 8 -20 0 0 -7 -6 -8 -16 -2 -9 5 -34 6 -55 2 -22
-4 -42 -3 -45 1 -3 5 -10 7 -15 4 -5 -3 -6 2 -2 11 4 12 3 15 -5 10 -7 -4 -12
-1 -13 6 0 10 -2 10 -6 1 -3 -10 -10 -10 -24 -2 -15 7 -24 7 -35 -2 -11 -9
-14 -9 -14 0 0 7 -5 9 -10 6 -6 -3 -13 1 -16 9 -3 9 -12 16 -20 16 -8 0 -14 6
-14 13 0 8 -4 7 -10 -3 -9 -13 -10 -13 -11 0 -1 28 -7 52 -15 58 -4 4 -4 -2 0
-12 7 -20 7 -20 -15 0 -14 12 -19 13 -14 4 4 -8 -2 -5 -14 7 -11 12 -21 29
-21 37 0 7 -7 17 -16 20 -15 6 -15 4 -4 -11 7 -10 -3 -1 -23 19 -21 20 -37 46
-37 58 0 11 -7 23 -16 27 -13 5 -13 7 -2 14 10 7 9 9 -4 9 -12 0 -16 6 -13 21
4 18 2 19 -11 8 -12 -10 -15 -10 -12 2 2 8 8 17 13 21 6 5 4 8 -5 8 -9 0 -16
9 -16 20 0 11 4 20 7 20 4 0 4 14 -1 30 -6 21 -5 30 3 30 7 0 3 7 -8 16 -11 8
-19 22 -17 31 2 9 -1 12 -8 8 -9 -6 -9 -2 -1 14 9 16 9 21 -1 22 -10 0 -10 2
0 6 6 2 9 10 5 16 -11 17 -10 41 2 50 6 4 5 10 -3 16 -11 6 -10 10 3 15 9 3
22 3 28 -1 7 -4 6 1 -2 10 -11 14 -11 17 0 17 11 0 11 2 -1 10 -11 7 -11 10
-2 10 7 0 10 5 7 10 -14 22 -7 103 9 112 8 5 13 15 10 23 -5 13 6 20 28 16 4
0 5 8 3 19 -2 11 0 20 4 20 5 0 8 8 7 17 0 9 9 22 21 28 13 7 20 15 17 18 -4
4 5 11 19 16 14 5 29 16 33 23 5 9 2 8 -12 -2 -18 -14 -18 -14 -5 3 8 10 20
16 27 13 9 -3 11 0 7 11 -4 11 -2 14 5 9 7 -4 12 -1 12 7 0 8 10 22 23 33 l22
19 -20 -25 c-17 -22 -18 -23 -1 -10 10 8 22 25 27 38 8 20 12 22 24 12 10 -9
15 -9 15 -1 0 6 5 11 11 11 5 0 7 -6 3 -12 -6 -10 -5 -10 8 -1 8 7 18 10 21 6
4 -3 7 1 7 11 0 9 5 14 10 11 6 -3 10 -1 10 5 0 6 5 8 10 5 6 -4 8 -12 4 -18
-3 -7 1 -4 9 5 8 10 17 15 20 11 4 -3 17 2 29 13 19 16 20 16 9 1 -12 -15 -12
-17 2 -11 8 3 18 12 21 20 3 8 8 14 11 14 4 0 3 -4 0 -10z m555 -520 c0 -5 -5
-10 -11 -10 -5 0 -7 5 -4 10 3 6 8 10 11 10 2 0 4 -4 4 -10z"/>
<path d="M7917 6495 c3 -8 9 -12 14 -9 12 7 11 11 -5 17 -10 4 -13 1 -9 -8z"/>
<path d="M8323 15925 c0 -8 4 -12 9 -9 5 3 6 10 3 15 -9 13 -12 11 -12 -6z"/>
<path d="M6780 15091 c0 -6 4 -13 10 -16 6 -3 7 1 4 9 -7 18 -14 21 -14 7z"/>
<path d="M13457 12719 c7 -7 15 -10 18 -7 3 3 -2 9 -12 12 -14 6 -15 5 -6 -5z"/>
<path d="M12500 9906 c0 -2 8 -10 18 -17 15 -13 16 -12 3 4 -13 16 -21 21 -21
13z"/>
<path d="M430 8096 c0 -2 8 -10 18 -17 15 -13 16 -12 3 4 -13 16 -21 21 -21
13z"/>
<path d="M15605 7407 c-6 -14 -10 -15 -21 -6 -12 9 -13 9 -9 -4 5 -12 -1 -15
-29 -13 -20 1 -36 -2 -36 -5 0 -4 -15 -3 -32 1 -43 9 -91 -7 -83 -28 4 -12 3
-12 -9 -3 -11 9 -16 9 -21 0 -6 -8 -10 -7 -16 2 -7 11 -9 10 -9 -3 0 -12 -5
-15 -17 -11 -12 5 -14 3 -8 -7 6 -10 4 -12 -8 -7 -10 3 -17 2 -17 -4 0 -6 -6
-7 -12 -2 -22 13 -37 12 -31 -3 3 -8 -1 -14 -11 -14 -23 0 -77 -35 -68 -45 4
-4 -3 -2 -15 4 -13 6 -23 8 -23 3 0 -6 -12 -17 -26 -27 -22 -14 -28 -15 -35
-4 -8 11 -11 11 -20 -4 -6 -9 -14 -15 -20 -12 -5 4 -9 1 -9 -5 0 -6 -4 -8 -10
-5 -5 3 -10 -1 -10 -10 0 -9 -4 -13 -10 -10 -5 3 -10 -2 -10 -12 0 -14 -2 -15
-9 -4 -6 9 -11 10 -15 2 -4 -6 -12 -8 -18 -5 -7 5 -9 1 -5 -8 4 -12 0 -15 -19
-13 -15 1 -24 -3 -24 -11 0 -13 -12 -18 -32 -15 -5 0 -8 -3 -8 -9 0 -6 -3 -9
-7 -9 -21 3 -33 -3 -33 -17 0 -8 -4 -12 -10 -9 -5 3 -10 -1 -10 -9 0 -9 -5
-15 -12 -13 -6 1 -17 -8 -23 -20 -8 -15 -15 -19 -22 -12 -7 7 -16 4 -29 -8
-11 -10 -13 -13 -4 -8 13 9 13 8 1 -7 -7 -10 -20 -18 -28 -18 -7 0 -16 -6 -19
-14 -3 -8 -13 -12 -26 -8 -12 3 -19 1 -15 -5 3 -5 -5 -17 -18 -27 -14 -10 -22
-22 -19 -27 3 -5 -2 -6 -11 -3 -11 5 -18 0 -22 -14 -2 -11 -14 -23 -25 -25
-13 -4 -17 -10 -13 -19 6 -10 5 -10 -5 -1 -14 13 -43 6 -34 -8 3 -5 0 -9 -6
-9 -7 0 -8 -6 -1 -18 7 -14 6 -19 -4 -19 -8 0 -11 5 -8 10 3 6 1 7 -5 3 -7 -4
-12 -13 -12 -21 0 -8 -5 -17 -12 -21 -7 -4 -8 -3 -4 4 5 8 2 10 -8 6 -9 -3
-13 -11 -9 -18 4 -6 -2 -4 -12 4 -10 8 -16 10 -12 3 4 -6 -1 -18 -13 -26 -11
-7 -17 -17 -13 -20 3 -4 1 -7 -5 -7 -14 0 -108 -91 -105 -102 2 -4 -4 -8 -12
-8 -8 0 -15 -7 -15 -16 0 -8 -4 -12 -10 -9 -9 6 -14 -8 -11 -28 1 -5 -3 -6 -9
-2 -6 4 -17 1 -25 -5 -8 -6 -19 -9 -26 -5 -8 6 -8 2 0 -14 10 -17 9 -21 -4
-21 -9 0 -14 -4 -11 -8 3 -5 -1 -9 -9 -9 -8 0 -15 4 -15 9 0 4 -4 8 -10 8 -5
0 -6 -7 -3 -17 4 -10 2 -14 -4 -10 -6 4 -13 -3 -16 -14 -3 -11 -15 -23 -26
-26 -11 -3 -18 -9 -15 -14 3 -5 0 -9 -7 -9 -19 0 -48 -30 -43 -45 3 -7 0 -16
-7 -21 -8 -4 -10 -3 -5 4 4 7 2 12 -3 12 -6 0 -11 -7 -11 -15 0 -8 -7 -15 -16
-15 -8 0 -13 -4 -10 -9 3 -5 -4 -11 -15 -14 -12 -3 -18 -10 -14 -16 6 -11 -7
-15 -34 -11 -13 1 -13 -1 -2 -14 12 -14 11 -16 -4 -9 -15 5 -17 3 -11 -12 4
-11 4 -16 0 -12 -4 4 -13 -1 -21 -11 -8 -9 -12 -11 -8 -4 11 22 -7 13 -37 -18
-16 -17 -26 -35 -23 -40 3 -6 1 -10 -4 -10 -6 0 -11 5 -11 10 0 6 -5 10 -11
10 -5 0 -8 -4 -4 -9 3 -6 -3 -14 -12 -20 -17 -10 -17 -10 2 -11 19 -1 19 -1 2
-11 -9 -6 -14 -15 -11 -21 4 -7 2 -8 -4 -4 -7 4 -12 2 -12 -4 0 -6 -4 -8 -10
-5 -5 3 -10 1 -10 -5 0 -6 -4 -9 -9 -6 -4 3 -17 -2 -27 -10 -10 -9 -12 -13 -4
-9 8 4 6 -1 -4 -9 -11 -9 -24 -16 -29 -16 -4 0 -6 -4 -3 -9 3 -5 -3 -11 -14
-14 -11 -3 -24 -16 -29 -29 -4 -12 -11 -22 -15 -20 -15 6 -20 1 -6 -8 12 -8
10 -10 -8 -10 -15 0 -21 -4 -16 -12 5 -8 2 -9 -9 -5 -9 3 -16 3 -16 -1 4 -23
-3 -34 -17 -28 -8 3 -12 2 -9 -4 3 -6 -1 -13 -9 -16 -9 -3 -13 -10 -10 -15 3
-5 -2 -9 -11 -9 -10 0 -13 -5 -9 -12 5 -7 0 -9 -14 -6 -15 4 -19 2 -15 -9 3
-8 0 -13 -8 -11 -8 2 -13 -3 -11 -11 3 -12 1 -12 -14 0 -12 9 -15 9 -10 2 4
-8 2 -13 -4 -13 -6 0 -8 -4 -5 -10 3 -5 -3 -10 -14 -10 -12 0 -21 -7 -21 -15
0 -8 -6 -15 -14 -15 -8 0 -18 -5 -22 -12 -5 -7 -2 -9 7 -4 8 4 5 1 -5 -8 -10
-8 -24 -13 -30 -9 -7 3 -6 1 1 -7 9 -10 8 -16 -6 -29 -10 -10 -11 -12 -1 -6
13 9 13 8 2 -6 -8 -11 -21 -15 -34 -11 -14 3 -19 1 -14 -6 4 -7 1 -12 -9 -12
-9 0 -14 -4 -10 -9 3 -5 -4 -13 -16 -16 -11 -4 -18 -9 -16 -12 7 -7 -61 -78
-75 -78 -7 -1 -12 -6 -11 -13 2 -6 -9 -15 -23 -18 -19 -5 -22 -9 -12 -15 10
-7 9 -9 -5 -9 -9 0 -16 -5 -15 -12 2 -7 -3 -13 -9 -14 -27 -3 -28 -5 -13 -14
12 -8 10 -10 -8 -10 -13 0 -21 -3 -19 -7 3 -5 -1 -14 -9 -21 -11 -10 -14 -10
-15 0 0 7 -5 1 -11 -15 -5 -15 -14 -25 -19 -21 -5 3 -9 1 -9 -5 0 -14 -50 -72
-58 -67 -4 2 -13 -2 -20 -10 -7 -8 -10 -14 -7 -14 3 0 -5 -12 -19 -26 -13 -15
-22 -32 -20 -39 3 -7 -4 -15 -15 -18 -12 -3 -21 -10 -21 -17 0 -6 5 -8 12 -4
7 4 8 3 4 -4 -4 -6 -13 -9 -20 -6 -7 3 -16 -2 -20 -11 -3 -9 -10 -14 -15 -11
-5 3 -11 -4 -14 -15 -3 -11 -15 -23 -27 -26 -16 -4 -18 -8 -8 -14 10 -7 9 -9
-4 -9 -10 0 -18 -7 -18 -16 0 -8 -5 -12 -11 -9 -6 4 -13 -2 -16 -14 -3 -12
-12 -21 -20 -21 -8 0 -12 -4 -8 -9 3 -5 -3 -12 -14 -16 -11 -3 -25 -13 -33
-23 -12 -16 -11 -16 7 -2 11 8 -2 -7 -29 -33 -26 -26 -53 -47 -58 -47 -6 0 -7
-7 -4 -16 3 -8 2 -12 -4 -9 -6 3 -10 1 -10 -5 0 -6 -4 -9 -9 -6 -4 3 -13 -6
-19 -19 -10 -21 -9 -23 6 -19 14 5 15 4 2 -4 -10 -8 -19 -7 -29 1 -12 9 -13 9
-7 0 4 -8 1 -13 -9 -13 -12 0 -14 -4 -6 -19 9 -15 7 -20 -9 -24 -11 -3 -20
-12 -20 -21 0 -9 -4 -16 -10 -16 -14 0 -110 -95 -110 -109 0 -10 -13 -15 -31
-13 -4 1 -5 -12 -3 -29 2 -16 0 -28 -5 -25 -4 3 -14 -6 -21 -20 -10 -18 -16
-21 -22 -12 -5 9 -8 8 -8 -5 0 -10 -12 -30 -27 -45 -15 -15 -20 -18 -12 -7 13
18 13 19 -3 6 -10 -7 -18 -20 -18 -28 0 -8 -3 -12 -7 -10 -5 3 -13 -1 -20 -8
-10 -11 -10 -15 0 -18 7 -4 6 -6 -4 -6 -16 -1 -61 -35 -60 -45 1 -3 -1 -6 -4
-6 -3 0 -12 -5 -19 -12 -10 -9 -11 -17 -4 -25 7 -9 7 -13 -1 -13 -6 0 -10 -5
-8 -12 1 -7 -5 -13 -13 -13 -8 0 -14 -6 -13 -13 3 -11 -9 -16 -29 -13 -4 0 -5
-5 -2 -13 3 -8 0 -17 -7 -22 -8 -5 -10 -3 -5 7 8 15 -9 -6 -32 -38 -7 -10 -10
-11 -7 -3 4 8 -1 6 -9 -4 -9 -11 -16 -23 -16 -28 0 -4 -7 -8 -16 -8 -8 0 -12
-5 -9 -10 3 -6 -1 -13 -9 -16 -9 -3 -16 -13 -16 -21 0 -8 5 -11 12 -7 7 4 8 3
4 -4 -4 -7 -14 -12 -22 -12 -13 0 -18 -12 -15 -32 0 -4 -6 -5 -14 -2 -9 4 -15
0 -15 -8 0 -8 -10 -23 -22 -34 l-23 -19 20 25 20 25 -22 -19 c-13 -11 -23 -25
-23 -33 0 -8 -5 -11 -12 -7 -7 5 -9 2 -5 -9 4 -11 2 -14 -8 -11 -8 3 -16 -3
-20 -15 -3 -12 -10 -19 -15 -16 -4 3 -11 -2 -14 -11 -3 -8 -2 -12 4 -9 19 12
10 -5 -20 -35 -17 -18 -27 -36 -24 -43 4 -7 4 -9 -1 -5 -11 10 -45 -10 -45
-27 0 -7 -9 -16 -19 -20 -11 -3 -25 -13 -33 -23 -12 -16 -11 -16 7 -2 19 14
19 14 6 -2 -7 -10 -20 -18 -28 -18 -8 0 -11 -5 -7 -12 5 -7 2 -9 -7 -6 -11 4
-14 -1 -13 -24 2 -22 -2 -28 -12 -24 -8 3 -14 0 -14 -6 0 -6 -6 -5 -17 3 -11
10 -14 10 -9 2 4 -8 2 -13 -4 -13 -6 0 -8 -5 -5 -10 3 -5 0 -10 -7 -10 -9 0
-9 -3 2 -10 13 -9 8 -14 -12 -12 -3 1 -9 -5 -12 -14 -4 -10 -1 -13 7 -9 6 4 3
-1 -7 -9 -11 -9 -23 -16 -28 -16 -4 0 -7 -3 -5 -7 1 -5 -2 -9 -8 -11 -21 -7
-46 -36 -41 -49 3 -7 2 -12 -2 -12 -21 3 -32 -3 -32 -17 0 -8 -5 -12 -11 -9
-6 4 -13 -2 -16 -14 -3 -12 -10 -21 -17 -21 -7 0 -6 -4 2 -9 10 -6 7 -10 -12
-15 -15 -4 -24 -11 -21 -16 4 -6 0 -13 -9 -16 -8 -3 -13 -14 -11 -26 4 -17 2
-18 -12 -6 -15 11 -16 11 -10 -4 4 -11 2 -17 -6 -15 -7 1 -11 -6 -11 -15 1
-10 -1 -17 -5 -16 -20 2 -30 -4 -36 -22 -4 -11 -10 -18 -15 -15 -4 3 -14 -3
-21 -12 -12 -14 -12 -16 1 -8 13 8 13 7 1 -8 -10 -13 -17 -14 -27 -7 -10 9
-11 6 -7 -11 5 -18 3 -21 -11 -16 -9 4 -15 3 -11 -2 8 -14 -25 -42 -38 -34 -7
4 -6 -1 2 -10 9 -12 10 -17 2 -17 -7 0 -9 -5 -5 -12 4 -7 3 -8 -5 -4 -6 4 -14
0 -17 -8 -3 -9 -10 -16 -16 -16 -5 0 -6 6 -2 13 5 8 2 7 -10 -2 -9 -8 -15 -20
-12 -27 3 -8 2 -13 -2 -13 -20 3 -32 -2 -30 -13 2 -7 -4 -12 -12 -13 -8 -1
-14 -7 -12 -14 2 -8 -3 -11 -12 -8 -11 4 -13 1 -9 -10 4 -10 2 -14 -5 -9 -6 3
-13 -3 -17 -14 -4 -11 -11 -18 -16 -15 -5 4 -9 1 -9 -4 0 -6 5 -11 11 -11 6 0
1 -11 -12 -25 -13 -13 -30 -25 -36 -25 -7 0 -13 -6 -13 -12 0 -10 -2 -10 -9 0
-6 11 -10 10 -16 -5 -5 -10 -7 -22 -6 -26 1 -5 -3 -6 -8 -3 -5 3 -12 -1 -15
-9 -3 -8 -11 -14 -18 -13 -7 2 -12 -1 -12 -7 2 -12 -48 -62 -56 -55 -3 3 -6
-10 -8 -28 -2 -18 -8 -30 -13 -27 -5 4 -9 -1 -9 -9 0 -8 -4 -18 -10 -21 -6 -3
-7 1 -4 12 3 11 0 10 -8 -5 -10 -15 -17 -19 -24 -12 -8 8 -15 6 -24 -5 -7 -8
-9 -15 -5 -15 5 0 -2 -9 -15 -20 -13 -11 -27 -20 -32 -20 -5 0 -7 -4 -3 -9 3
-5 1 -13 -5 -16 -8 -5 -7 -12 2 -23 10 -12 10 -14 1 -8 -8 4 -13 2 -13 -4 0
-6 -4 -8 -10 -5 -5 3 -10 -2 -10 -11 0 -10 -3 -15 -6 -11 -9 9 -36 -21 -29
-32 3 -6 -4 -8 -15 -6 -12 2 -18 0 -14 -6 3 -6 -4 -20 -15 -31 -18 -16 -20
-23 -10 -34 10 -12 9 -13 -5 -8 -10 4 -16 1 -17 -7 0 -8 -4 -5 -8 6 -8 19 -8
19 -15 -2 -4 -13 -11 -23 -15 -23 -4 0 -16 -7 -27 -16 -10 -8 -13 -12 -5 -8 9
5 12 3 7 -4 -4 -7 -17 -12 -29 -12 -18 0 -19 -2 -7 -10 12 -8 12 -10 -3 -16
-9 -3 -14 -10 -11 -15 3 -5 1 -9 -3 -9 -5 0 -19 -18 -33 -39 -13 -22 -28 -38
-32 -35 -4 3 -8 -2 -8 -11 0 -11 -5 -15 -14 -12 -10 4 -14 0 -11 -13 3 -14 -1
-17 -12 -13 -12 5 -14 3 -8 -7 6 -10 4 -12 -9 -7 -10 4 -15 3 -11 -3 3 -6 -1
-13 -9 -16 -9 -3 -16 -12 -16 -20 0 -8 -6 -14 -13 -14 -20 0 -59 -48 -44 -54
7 -2 2 -5 -10 -5 -13 -1 -23 -7 -23 -16 0 -8 -6 -15 -12 -15 -7 0 -29 -17 -48
-38 -19 -20 -24 -28 -10 -17 l25 20 -19 -22 c-11 -13 -25 -23 -33 -23 -8 0
-11 -5 -7 -12 5 -7 2 -9 -9 -5 -11 4 -14 2 -11 -7 3 -8 0 -17 -7 -22 -8 -5
-10 -3 -4 6 5 9 4 11 -3 6 -7 -4 -12 -13 -12 -20 0 -7 -11 -18 -25 -24 -14 -6
-25 -16 -25 -22 0 -6 -6 -8 -12 -4 -9 5 -9 2 1 -9 12 -15 11 -17 -7 -17 -12 0
-24 -5 -28 -12 -5 -7 -2 -9 7 -4 8 4 5 0 -5 -8 -11 -9 -24 -16 -29 -16 -4 0
-5 -5 -2 -10 3 -5 -1 -10 -9 -10 -9 0 -16 -7 -16 -16 0 -10 -5 -14 -16 -10 -8
3 -12 2 -9 -4 3 -6 2 -10 -4 -10 -5 0 -13 -9 -16 -20 -4 -11 -10 -18 -15 -15
-5 3 -11 -4 -15 -15 -3 -11 -11 -20 -16 -20 -6 0 -8 -4 -5 -9 3 -5 -2 -8 -12
-7 -10 0 -16 -5 -14 -13 2 -8 -3 -11 -12 -8 -9 4 -15 3 -15 -1 1 -4 1 -14 0
-22 -1 -11 -3 -12 -9 -3 -6 9 -11 6 -21 -8 -10 -17 -10 -20 1 -15 7 4 4 1 -6
-6 -10 -7 -28 -23 -39 -35 -16 -18 -23 -20 -34 -11 -11 9 -12 7 -6 -7 5 -14 3
-17 -10 -12 -9 3 -21 -1 -29 -11 -12 -16 -11 -16 7 -2 19 14 19 14 6 -2 -7
-10 -20 -18 -28 -18 -8 0 -11 -4 -8 -10 3 -5 2 -10 -2 -10 -5 0 -18 -7 -29
-16 -10 -8 -13 -13 -6 -9 6 3 12 4 12 0 0 -3 -12 -10 -27 -16 -22 -8 -24 -12
-13 -19 12 -8 10 -10 -8 -10 -13 0 -20 -4 -17 -10 3 -5 1 -10 -5 -10 -17 0
-40 -26 -32 -35 4 -5 0 -6 -9 -2 -9 3 -28 -5 -44 -19 -15 -13 -32 -21 -38 -17
-6 3 -7 1 -3 -6 8 -12 -17 -44 -27 -35 -3 3 -8 -4 -12 -17 -6 -17 -9 -19 -16
-8 -7 11 -9 11 -9 -3 0 -9 -5 -20 -12 -24 -7 -4 -8 -3 -4 4 4 7 2 12 -4 12 -6
0 -13 -7 -16 -15 -4 -8 -10 -12 -15 -9 -5 3 -14 -6 -20 -20 -7 -14 -16 -23
-20 -20 -5 3 -9 -1 -9 -8 0 -10 -2 -10 -8 -1 -8 13 -34 2 -33 -13 1 -5 -5 -9
-11 -9 -7 0 -13 -7 -13 -15 0 -13 281 -15 2462 -17 2181 -3 2462 -1 2457 12
-4 9 0 15 9 15 9 0 19 5 23 12 4 7 3 8 -4 4 -8 -5 -10 -2 -6 8 3 9 11 13 17 9
6 -4 8 0 4 10 -4 11 -1 15 14 12 10 -2 19 1 19 7 0 14 47 58 62 58 6 0 9 3 5
6 -3 3 5 18 18 31 16 18 30 24 44 20 14 -3 21 0 21 10 0 8 5 11 10 8 9 -6 14
8 11 28 -1 5 2 6 6 4 5 -3 17 1 28 9 10 8 15 14 10 14 -4 0 2 9 15 20 13 11
27 20 32 20 5 0 6 5 2 12 -5 8 -2 9 10 5 13 -5 17 -3 13 6 -5 13 24 47 39 47
13 0 52 49 45 57 -3 4 2 1 11 -6 15 -11 17 -10 13 8 -2 12 0 19 5 16 5 -3 13
3 19 12 8 14 11 15 11 3 1 -12 3 -12 14 2 7 10 17 14 21 10 5 -4 5 1 2 11 -4
10 -2 17 5 17 6 0 9 3 5 6 -7 8 17 34 32 34 6 0 11 5 11 11 0 5 5 7 11 4 13
-9 38 25 32 42 -3 7 2 14 11 14 37 3 41 5 38 23 -2 11 1 15 8 11 13 -8 42 14
34 26 -3 5 1 9 9 9 7 0 19 11 25 25 6 13 25 31 42 40 16 8 30 23 30 32 0 9 3
13 7 10 3 -4 13 2 20 13 8 11 18 18 23 15 4 -3 11 1 13 7 4 10 8 9 17 -2 10
-13 11 -13 6 2 -3 10 -1 20 4 23 5 3 7 12 4 19 -3 8 0 17 7 22 8 4 10 3 5 -4
-8 -14 29 -11 41 3 5 4 1 5 -7 1 -8 -4 -6 0 4 8 13 10 15 16 6 16 -8 0 -4 8
10 20 26 22 35 26 25 9 -4 -6 2 -5 13 2 16 10 18 17 11 36 -5 15 -5 22 0 18 5
-3 12 -1 16 5 4 6 11 7 17 4 7 -4 8 -2 4 4 -6 11 26 52 42 52 4 0 7 5 7 11 0
7 10 16 23 20 15 6 21 5 17 -1 -9 -15 5 -12 21 5 9 8 11 15 5 15 -6 0 -11 5
-11 11 0 5 5 7 12 3 8 -5 9 -2 5 11 -6 13 -3 16 10 13 10 -2 26 4 36 14 10 11
12 18 5 18 -6 0 4 14 23 31 23 20 28 28 14 24 -18 -6 -18 -5 -2 5 9 6 22 8 27
5 5 -3 7 0 4 9 -3 9 2 17 15 21 11 3 23 15 26 26 4 11 11 16 17 13 8 -5 9 -1
5 10 -5 13 -3 17 7 13 15 -6 46 22 46 41 0 6 9 14 20 17 11 4 18 10 15 15 -3
5 4 11 15 15 11 4 18 11 15 16 -4 5 1 9 10 9 9 0 13 4 10 10 -3 6 -2 10 4 10
5 0 8 11 7 25 -3 21 -1 23 16 14 10 -5 18 -6 17 -2 -4 22 3 31 26 37 14 4 23
11 20 16 -3 6 5 21 19 35 14 14 23 25 20 25 -3 0 1 6 8 14 9 10 15 11 20 2 5
-7 8 -6 8 5 0 9 9 26 20 39 11 13 20 27 20 32 0 5 12 20 26 33 15 14 23 29 18
36 -4 8 -3 9 4 5 7 -4 12 -2 12 3 0 6 3 10 8 8 4 -1 17 8 30 21 12 12 19 22
15 22 -5 0 7 10 25 22 24 15 30 23 21 29 -10 6 -9 12 7 26 11 10 23 26 27 36
4 11 16 21 27 24 11 3 17 10 13 16 -4 6 0 8 10 4 11 -4 14 -2 10 9 -3 8 1 14
11 14 8 0 20 9 26 20 7 12 16 18 23 13 7 -4 7 0 -2 10 -12 15 -11 17 5 17 16
0 17 2 4 10 -14 9 -7 14 14 11 16 -3 36 21 36 44 0 15 7 25 21 28 12 3 18 10
14 16 -3 6 1 11 10 11 9 0 14 4 10 9 -3 5 4 12 15 16 11 3 20 13 20 21 0 8 6
13 13 11 7 -1 12 10 12 30 0 17 2 31 5 31 20 -1 30 4 25 12 -3 6 -1 10 5 10 6
0 8 4 5 10 -3 6 1 7 9 4 11 -4 16 0 16 12 0 9 3 14 7 11 12 -12 32 27 21 41
-8 10 -7 11 7 6 13 -5 16 -4 11 4 -4 7 -1 12 7 12 8 0 20 14 26 30 5 17 17 30
25 30 9 0 16 5 16 11 0 6 14 28 30 49 17 21 30 43 30 50 0 6 5 8 10 5 9 -6 14
8 11 28 0 4 4 7 9 7 5 0 9 3 9 8 -3 20 3 32 17 32 8 0 12 5 9 10 -3 6 1 10 9
10 8 0 18 5 22 12 5 7 2 9 -7 4 -8 -4 -5 0 5 8 11 9 25 16 30 16 6 0 4 5 -4
10 -12 8 -12 10 -1 10 8 0 12 3 8 6 -3 3 10 22 30 42 22 22 28 33 17 29 -18
-7 -18 -6 0 8 11 8 14 15 8 15 -7 0 -5 7 6 18 9 11 20 17 25 15 4 -3 7 -1 6 4
-3 19 2 34 10 29 5 -4 7 4 3 16 -3 14 -2 19 6 14 7 -4 12 -1 12 8 0 9 3 15 8
15 19 -3 22 3 11 24 -6 12 -8 19 -5 15 9 -7 46 27 46 42 0 5 3 9 8 9 17 -3 26
2 15 9 -12 8 18 49 53 71 19 12 19 12 0 6 -20 -6 -20 -6 -1 15 16 18 17 23 5
30 -12 7 -12 10 3 16 14 5 15 9 6 20 -9 12 -9 13 4 9 8 -4 18 -1 23 6 5 8 3
10 -7 5 -8 -4 -3 2 10 13 13 12 17 21 10 21 -8 0 -5 6 7 15 13 10 14 14 5 15
-10 0 -11 3 -2 13 6 8 7 18 3 22 -4 5 -2 5 4 2 12 -7 29 19 25 37 -1 5 5 6 12
3 11 -4 14 2 12 24 -2 26 -1 28 13 17 12 -10 14 -10 8 0 -4 6 -3 12 2 12 9 0
11 8 14 60 1 24 4 27 15 18 8 -6 13 -7 12 -2 -3 13 23 64 30 60 4 -3 5 14 3
36 -3 28 -1 39 7 34 6 -4 11 -1 11 8 0 8 6 17 13 19 9 4 8 8 -3 16 -11 8 -12
11 -2 11 7 0 10 4 7 10 -4 6 1 7 11 3 12 -4 15 -3 10 5 -4 7 -2 12 6 12 9 0 9
3 -2 10 -13 9 -13 10 0 10 13 0 13 1 0 10 -11 7 -11 10 -2 10 9 0 12 10 8 30
-2 17 0 28 5 24 5 -3 9 0 9 6 0 6 4 9 8 6 5 -3 8 5 7 17 -2 25 15 47 30 39 6
-2 5 1 -2 8 -8 9 -9 19 -2 32 7 13 6 18 -3 18 -9 0 -9 3 2 10 13 9 13 10 0 10
-12 1 -12 3 3 14 9 7 17 18 17 25 0 6 6 11 13 11 9 0 8 3 -2 9 -9 6 -10 11 -2
15 6 4 9 12 6 17 -4 5 1 9 10 9 9 0 13 5 10 10 -3 6 0 10 7 10 9 0 9 3 -2 10
-12 8 -12 10 -1 10 11 0 11 3 0 17 -12 14 -12 16 0 8 11 -6 13 -3 9 13 -4 12
-3 20 1 18 4 -3 13 0 21 5 13 8 13 10 0 19 -8 5 -10 10 -4 10 6 0 11 7 11 15
0 8 -4 15 -8 15 -10 0 -6 34 6 42 6 5 4 8 -4 8 -9 0 -6 7 9 20 13 11 19 20 15
20 -5 0 0 7 11 15 11 9 13 14 5 13 -8 -2 -14 6 -16 20 -1 12 3 22 9 22 6 0 4
5 -4 10 -11 7 -11 10 -2 10 7 0 10 5 7 10 -3 6 -1 10 5 10 6 0 8 5 4 12 -5 8
-2 9 11 4 15 -5 16 -4 6 8 -9 11 -9 16 0 21 8 6 7 10 -2 16 -11 7 -11 9 -1 9
10 0 10 5 2 21 -9 15 -8 24 1 35 9 11 9 14 -2 14 -11 0 -11 2 1 10 12 8 12 10
1 10 -11 0 -11 3 0 17 12 15 12 16 -1 8 -13 -8 -13 -7 -1 8 10 13 10 17 1 17
-10 0 -10 3 -1 14 9 11 9 15 -1 19 -8 3 -5 6 7 7 19 1 19 1 2 11 -18 10 -18
12 2 25 19 14 20 24 20 236 0 121 -3 218 -6 214 -12 -12 -30 38 -20 58 6 13 5
21 -4 27 -10 6 -10 10 0 23 11 13 11 16 0 16 -9 0 -10 3 -4 8 12 9 16 44 4 36
-5 -3 -9 -1 -9 5 0 5 6 12 13 14 9 4 8 8 -3 16 -13 10 -13 11 0 11 10 0 11 3
4 8 -6 4 -10 15 -9 24 2 10 -2 15 -10 12 -7 -3 -14 5 -17 20 -3 15 -1 26 6 26
6 0 4 5 -4 10 -12 8 -12 10 -1 10 11 0 11 3 1 14 -6 8 -19 12 -28 9 -15 -4
-15 -3 -2 6 12 9 13 12 1 20 -11 7 -11 9 0 14 11 4 11 6 1 6 -8 1 -10 6 -5 14
11 18 12 37 2 37 -6 0 -7 5 -4 10 3 6 0 10 -7 10 -8 0 -15 10 -15 22 -1 13 -7
24 -13 26 -5 2 -10 10 -10 18 0 8 -5 14 -11 14 -5 0 -8 4 -5 9 3 5 -1 12 -10
15 -8 3 -13 10 -9 15 3 5 0 13 -6 17 -8 5 -8 9 1 14 8 5 4 15 -15 34 -14 14
-21 26 -14 26 6 0 2 8 -10 18 -12 9 -23 27 -23 38 -2 15 -7 20 -17 16 -9 -3
-12 -1 -7 6 4 7 2 12 -4 12 -6 0 -8 5 -4 12 5 8 2 9 -11 4 -15 -5 -16 -4 -5 9
7 9 9 15 4 13 -5 -2 -10 0 -11 5 -5 15 -48 54 -55 50 -5 -2 -8 3 -8 11 0 9 -5
16 -11 16 -5 0 -7 4 -4 10 3 6 -1 7 -10 4 -10 -4 -15 -2 -13 7 2 8 -3 13 -9
12 -7 -2 -13 2 -13 8 0 14 -26 39 -40 39 -6 0 -9 4 -6 8 3 5 -1 9 -9 9 -8 0
-12 -3 -10 -7 2 -4 -2 -7 -10 -7 -8 0 -12 3 -10 7 7 11 -9 28 -30 32 -11 1
-27 11 -36 20 -11 12 -19 14 -27 6 -7 -7 -14 -4 -24 11 -7 11 -18 21 -24 21
-7 0 -14 9 -17 21 -5 18 -8 19 -27 9 -15 -8 -20 -8 -16 -1 4 6 0 11 -9 11 -9
0 -14 4 -11 9 3 5 -1 12 -10 15 -8 3 -12 2 -9 -4 3 -6 1 -10 -4 -10 -6 0 -11
6 -11 13 0 8 -4 7 -10 -3 -8 -12 -10 -12 -11 5 l0 20 -9 -20 c-6 -13 -9 -15
-9 -5 -1 20 -38 43 -46 29 -4 -6 -13 -3 -22 8 -8 10 -12 12 -8 6 4 -9 1 -11
-9 -7 -9 3 -16 12 -16 19 0 9 -11 10 -41 5 -35 -7 -39 -5 -35 9 5 14 5 14 -7
-1 -9 -11 -18 -14 -27 -8 -8 5 -18 6 -22 4 -4 -3 -8 0 -8 7 0 8 -5 7 -17 -2
-9 -8 -14 -9 -11 -4 4 6 3 17 -3 25 -7 12 -9 12 -9 1 0 -11 -3 -11 -15 -1 -12
10 -15 10 -15 0 0 -8 -4 -9 -12 -3 -15 11 -58 11 -75 0 -8 -5 -13 -3 -13 4 0
10 -3 10 -12 1 -6 -6 -18 -8 -27 -3 -19 9 -32 8 -48 -2 -8 -5 -13 -3 -13 4 0
8 -4 8 -15 -1 -12 -10 -15 -10 -15 0 0 10 -3 10 -15 0 -12 -10 -15 -10 -15 1
0 12 -2 12 -9 0 -7 -11 -9 -11 -14 0 -3 11 -6 10 -12 -4z m-1295 -741 c0 -2
-8 -10 -17 -17 -16 -13 -17 -12 -4 4 13 16 21 21 21 13z m530 -11 c-11 -13
-10 -14 4 -9 9 3 16 10 16 14 0 5 14 5 30 0 21 -6 30 -5 31 3 0 7 3 7 6 -2 5
-11 7 -11 14 0 7 12 9 11 9 -1 0 -13 1 -13 10 0 8 12 10 11 10 -7 0 -16 5 -20
20 -16 12 3 20 0 20 -7 0 -7 8 -9 20 -5 12 4 20 2 20 -5 0 -6 4 -9 9 -6 5 3
11 -3 14 -14 3 -11 13 -20 22 -20 10 0 13 -5 9 -12 -5 -8 -2 -9 11 -4 16 6 16
4 4 -11 -8 -9 -9 -14 -4 -11 6 4 17 3 25 -3 12 -6 12 -9 2 -9 -10 0 -10 -4 2
-15 8 -9 12 -23 9 -33 -3 -9 -3 -14 2 -10 4 4 14 0 21 -10 9 -13 9 -19 1 -24
-9 -6 -8 -11 3 -18 11 -7 12 -12 3 -21 -9 -9 -8 -16 6 -28 9 -9 10 -11 2 -6
-12 9 -12 7 -2 -13 7 -13 17 -20 24 -16 7 4 3 -4 -9 -17 -11 -13 -20 -31 -19
-39 0 -8 -4 -19 -10 -23 -7 -6 -5 -10 4 -14 11 -5 11 -7 0 -14 -10 -6 -11 -9
-1 -9 6 0 12 -5 12 -11 0 -6 -7 -8 -16 -5 -15 6 -15 4 -3 -11 8 -9 10 -14 4
-11 -13 8 -38 -19 -25 -27 5 -3 7 -12 4 -20 -4 -8 -10 -12 -15 -9 -5 3 -9 -1
-9 -9 0 -8 -8 -21 -17 -28 -17 -13 -17 -13 -3 6 14 19 14 19 -2 6 -10 -7 -18
-20 -18 -28 0 -8 -4 -11 -10 -8 -9 6 -14 -7 -11 -27 0 -4 -6 -5 -14 -2 -9 4
-15 0 -15 -7 0 -12 -2 -12 -9 -1 -7 11 -13 9 -31 -10 -13 -12 -20 -17 -16 -10
11 18 -5 14 -20 -5 -11 -15 -13 -15 -14 -3 0 13 -1 13 -10 0 -7 -11 -10 -11
-10 -2 0 9 -5 10 -18 3 -13 -7 -23 -6 -30 1 -8 8 -12 8 -12 2 0 -6 -13 -9 -30
-6 -16 2 -30 8 -30 13 0 5 -7 9 -15 9 -8 0 -24 9 -35 20 -11 11 -25 20 -31 20
-15 0 -39 26 -39 42 0 8 -9 20 -19 28 -11 7 -18 17 -15 22 3 4 -2 8 -12 8 -13
0 -14 3 -4 15 9 11 9 15 1 15 -7 0 -9 5 -4 13 9 15 14 41 6 33 -3 -3 -12 2
-20 12 -9 10 -12 11 -7 2 4 -8 3 -11 -1 -7 -13 11 -15 37 -4 37 6 0 5 8 -1 20
-8 15 -8 20 1 20 8 0 8 4 -1 15 -10 12 -10 15 1 15 11 0 11 2 -1 10 -12 8 -12
10 5 11 l20 0 -20 9 c-11 5 -14 9 -7 9 6 1 11 4 11 9 -3 19 2 33 10 27 5 -3
12 -1 16 5 3 5 1 10 -6 10 -8 0 -8 4 1 15 7 8 8 15 3 15 -5 0 -10 7 -10 15 0
14 10 19 30 16 5 -1 6 3 3 8 -4 5 -2 12 4 16 6 4 7 12 3 18 -4 7 1 6 11 -2 9
-8 16 -10 15 -5 -4 21 2 35 11 29 6 -3 10 1 10 9 0 9 4 15 10 14 5 -2 21 11
35 27 15 17 23 23 19 15 -7 -13 -5 -13 8 -2 13 10 17 10 21 0 4 -9 6 -8 6 3 1
8 6 20 13 27 17 17 23 15 8 -3z m1086 -185 c3 0 2 5 -1 11 -4 6 4 5 16 -3 13
-7 28 -19 33 -27 7 -11 10 -11 17 0 8 12 11 12 19 -1 8 -12 10 -12 10 -1 0 10
6 7 18 -7 10 -11 32 -23 48 -26 16 -2 31 -5 33 -5 2 -1 -4 -10 -14 -21 -18
-20 -18 -21 0 -14 13 5 16 4 11 -4 -6 -11 5 -16 26 -13 4 0 5 -6 2 -14 -4 -9
1 -18 11 -21 10 -4 16 -16 15 -33 -3 -42 -1 -53 10 -46 6 3 10 -1 10 -10 0 -9
4 -14 8 -11 5 3 9 -1 9 -9 0 -8 -5 -11 -11 -8 -6 4 -5 -1 3 -10 7 -9 9 -17 3
-17 -12 0 -10 -33 3 -42 6 -5 4 -8 -5 -8 -13 0 -13 -1 0 -10 13 -9 13 -10 0
-10 -13 0 -13 -2 0 -10 12 -7 9 -13 -13 -34 -16 -15 -22 -26 -15 -27 10 0 10
-2 1 -6 -9 -3 -10 -10 -3 -23 8 -15 6 -22 -10 -33 -11 -7 -18 -16 -15 -19 3
-3 -2 -11 -12 -19 -14 -12 -16 -12 -8 0 5 10 4 12 -3 7 -7 -4 -12 -21 -12 -37
0 -20 -4 -29 -12 -26 -7 2 -19 -8 -25 -22 l-13 -26 6 25 7 25 -21 -25 c-15
-17 -21 -20 -22 -10 0 13 -1 13 -10 0 -7 -11 -10 -11 -10 -2 0 7 -5 10 -11 7
-6 -4 -8 -12 -6 -19 3 -8 -8 -11 -34 -11 -22 0 -39 -4 -39 -10 0 -5 -5 -3 -10
5 -9 13 -10 13 -10 0 0 -12 -2 -12 -9 -1 -6 9 -11 10 -15 2 -11 -17 -26 -13
-26 6 0 9 -3 13 -7 10 -3 -4 -12 1 -19 11 -11 14 -13 14 -14 2 0 -13 -1 -13
-10 0 -8 12 -10 12 -10 1 0 -10 -3 -11 -13 -2 -8 6 -17 8 -20 4 -4 -3 -7 1 -7
10 0 10 -7 17 -15 17 -9 0 -19 8 -22 18 -10 25 -29 42 -50 42 -14 0 -15 2 -4
9 9 6 10 11 3 15 -6 4 -9 13 -5 21 4 13 -6 19 -28 17 -3 -1 -4 10 -1 23 7 37
-6 75 -26 75 -13 0 -14 2 -3 9 10 6 10 10 1 16 -9 6 -9 10 1 16 12 8 11 11 -1
19 -12 8 -12 10 -1 10 10 0 11 3 2 14 -9 11 -8 15 4 20 11 4 14 2 9 -6 -5 -7
-3 -8 5 -4 7 5 10 14 7 22 -3 8 0 14 7 14 8 0 6 4 -3 10 -13 9 -13 10 0 10 13
0 13 1 0 10 -9 6 -11 10 -3 10 7 0 10 7 7 15 -4 10 0 15 11 15 9 0 13 5 10 10
-3 6 -1 10 5 10 6 0 9 4 5 9 -3 5 12 27 32 48 21 20 29 31 18 23 -19 -14 -19
-14 -6 3 7 9 20 17 28 17 8 0 11 5 7 12 -4 6 -3 8 4 4 6 -3 18 1 26 10 12 12
16 12 17 2 0 -10 2 -10 6 0 4 10 8 10 19 1 11 -9 14 -9 14 1 0 9 4 9 17 -1 11
-10 14 -10 9 -1 -4 8 -1 12 9 12 11 0 15 5 12 15 -5 11 -1 12 19 5 14 -6 28
-10 30 -10z m-709 -176 c-3 -3 -12 -4 -19 -1 -8 3 -5 6 6 6 11 1 17 -2 13 -5z
m1780 -519 c0 -8 -4 -15 -9 -15 -10 0 -11 14 -1 23 9 10 10 9 10 -8z m-2037
-131 c0 6 5 4 10 -4 7 -11 10 -11 10 -2 0 7 5 10 11 7 17 -11 89 -11 90 0 0 6
3 4 6 -4 5 -11 7 -11 14 0 7 11 9 10 9 -4 0 -10 5 -15 10 -12 6 3 10 -1 10
-11 0 -13 3 -14 15 -4 12 10 15 10 16 -1 0 -11 2 -11 6 -1 3 8 9 10 16 3 7 -5
17 -11 22 -13 6 -1 9 -6 8 -10 -2 -4 4 -5 11 -2 18 7 57 -26 49 -40 -4 -6 1
-5 10 3 11 9 17 10 17 2 0 -6 9 -11 21 -11 16 0 19 -4 15 -17 -4 -10 -4 -14 0
-11 9 10 54 -46 54 -68 0 -9 3 -15 6 -11 11 11 33 -17 23 -30 -7 -7 -6 -14 1
-18 6 -3 8 -11 5 -16 -3 -5 1 -6 9 -3 12 5 16 -1 16 -26 0 -18 4 -29 10 -25 6
3 10 -3 10 -14 0 -12 5 -21 11 -21 8 0 8 -5 -1 -15 -10 -12 -10 -15 1 -15 11
0 11 -2 -1 -10 -11 -7 -11 -10 -2 -10 10 0 10 -5 2 -20 -8 -15 -8 -20 2 -20
10 0 10 -2 0 -9 -18 -11 -17 -20 5 -38 10 -8 12 -12 6 -8 -7 3 -13 1 -13 -4 0
-6 7 -11 16 -11 14 0 15 -2 3 -17 -8 -9 -9 -14 -3 -10 7 4 15 0 18 -9 3 -8 2
-12 -3 -9 -5 3 -12 1 -16 -5 -3 -5 -2 -10 3 -10 5 0 8 -8 7 -17 -2 -27 -16
-53 -25 -48 -11 7 -7 -49 4 -57 6 -4 4 -13 -3 -22 -11 -13 -11 -16 0 -16 11 0
11 -2 -1 -10 -13 -9 -13 -10 0 -10 9 0 11 -3 5 -8 -5 -4 -11 -14 -13 -22 -2
-8 -8 -17 -13 -18 -5 -2 -7 -8 -3 -13 3 -5 0 -9 -6 -9 -6 0 -8 -4 -5 -10 3 -5
1 -10 -4 -10 -6 0 -11 -6 -11 -14 0 -8 -6 -17 -12 -20 -10 -5 -10 -7 -1 -12 7
-3 9 -12 6 -20 -3 -7 -9 -11 -14 -8 -5 3 -9 -5 -9 -18 0 -18 -2 -20 -10 -8 -5
8 -10 12 -10 8 0 -5 0 -11 -1 -15 0 -5 -9 -11 -21 -16 -11 -4 -22 -16 -25 -27
-3 -11 -9 -17 -14 -14 -5 3 -9 -1 -9 -9 0 -8 -8 -21 -17 -28 -17 -13 -17 -13
-3 6 14 19 14 19 -3 6 -10 -8 -16 -20 -13 -27 3 -8 0 -11 -10 -7 -7 3 -14 0
-14 -7 0 -10 -3 -10 -15 0 -12 10 -15 10 -15 -1 0 -11 -2 -11 -10 1 -7 11 -10
11 -10 2 0 -7 -4 -11 -9 -7 -6 3 -15 -4 -21 -15 -9 -17 -14 -19 -33 -8 -20 10
-21 10 -8 -5 12 -15 11 -17 -8 -17 -12 0 -20 -4 -17 -9 3 -4 -12 -5 -34 -1
-27 5 -40 4 -40 -4 0 -6 -5 -4 -10 4 -6 10 -10 11 -10 3 0 -9 -7 -10 -27 -2
-21 8 -28 7 -35 -5 -7 -13 -12 -13 -35 -1 -19 10 -29 11 -34 3 -4 -6 -13 0
-24 18 -9 16 -14 20 -10 10 6 -20 6 -20 -16 0 -12 10 -19 13 -15 6 6 -10 2
-10 -21 0 -15 6 -33 16 -39 20 -6 5 -20 6 -30 2 -16 -5 -16 -4 -4 5 12 9 11
11 -7 11 -16 0 -21 4 -17 15 4 11 2 13 -9 9 -14 -5 -44 31 -39 48 1 4 -7 5
-18 3 -12 -2 -18 0 -15 6 4 5 1 9 -5 9 -6 0 -9 4 -6 9 3 5 -4 11 -16 14 -18 5
-19 8 -8 21 9 12 9 16 1 16 -7 0 -9 5 -6 10 3 6 1 10 -6 10 -6 0 -22 12 -35
27 -17 20 -20 30 -12 40 9 11 5 16 -12 15 -3 0 -10 10 -17 24 -8 18 -8 24 0
24 7 0 5 5 -3 10 -11 7 -11 10 -2 10 10 0 10 5 2 20 -7 13 -7 20 -1 20 6 0 8
7 6 15 -16 50 -14 48 -32 34 -15 -12 -16 -12 -8 1 13 20 15 40 5 40 -11 0 -7
33 5 43 6 6 5 10 -3 14 -10 4 -10 8 0 21 10 12 10 14 1 8 -7 -4 -13 -2 -13 3
0 6 5 11 11 11 8 0 8 4 0 14 -9 10 -6 17 13 30 21 13 24 20 16 46 -6 21 -5 30
3 30 7 0 6 4 -3 10 -8 5 -10 10 -4 10 7 0 10 13 8 30 -2 16 0 29 4 29 25 -4
35 2 24 13 -8 8 -6 16 9 29 12 10 18 23 14 29 -3 6 -3 10 2 9 19 -3 30 2 31
16 1 8 3 22 4 30 1 8 8 15 15 15 8 0 11 5 7 12 -5 8 -2 9 10 5 10 -4 15 -3 11
4 -9 13 14 41 28 32 6 -4 8 2 5 14 -4 16 -1 19 17 17 16 -1 22 3 21 15 0 9 5
15 12 14 6 -2 12 2 12 9 0 6 3 8 7 5 3 -4 17 3 30 15 13 12 23 17 23 11 0 -5
7 -10 15 -10 8 0 15 5 15 11 0 6 5 4 10 -4 6 -10 10 -11 10 -2 0 6 7 12 16 12
9 0 12 5 8 12 -5 8 0 9 14 6 12 -4 22 -3 22 2 0 4 16 4 35 0 24 -5 35 -4 35 4z
m1144 -186 c-3 -4 0 -8 5 -8 6 0 11 4 11 9 0 5 15 5 35 1 21 -5 35 -4 35 2 0
5 6 6 13 1 16 -10 38 -13 33 -4 -3 4 8 5 25 3 17 -3 29 -10 29 -19 0 -10 6
-13 17 -9 10 4 14 4 10 0 -4 -4 1 -13 11 -21 16 -12 15 -13 -3 -6 -11 3 -17 3
-13 -1 11 -13 43 -14 50 -2 5 8 8 7 8 -2 0 -7 5 -10 12 -6 7 4 8 3 4 -4 -7
-12 29 -54 38 -44 5 5 10 -22 7 -40 0 -5 4 -8 10 -8 5 0 7 -4 4 -10 -3 -5 2
-10 11 -10 10 0 14 -3 11 -6 -3 -4 -2 -15 4 -25 7 -14 6 -19 -3 -19 -9 0 -9
-3 2 -10 11 -7 11 -10 2 -10 -9 0 -10 -5 -4 -17 6 -9 6 -29 2 -45 -6 -19 -5
-28 3 -29 7 0 7 -3 -2 -6 -11 -5 -11 -7 0 -14 12 -7 11 -9 -1 -9 -13 0 -13 -1
0 -10 13 -9 13 -10 0 -10 -13 0 -13 -1 0 -10 10 -6 11 -10 3 -10 -7 0 -13 -5
-13 -11 0 -5 4 -7 10 -4 6 3 7 -1 4 -10 -4 -9 -9 -14 -11 -11 -9 8 -43 -28
-43 -46 0 -10 -6 -18 -12 -18 -9 0 -8 -4 2 -10 13 -9 13 -10 0 -11 -8 -1 -19
-1 -23 0 -5 1 -6 -3 -3 -8 3 -5 -8 -24 -26 -42 -17 -19 -28 -29 -25 -22 5 8 0
11 -12 10 -11 0 -18 -4 -15 -8 2 -4 -7 -14 -21 -23 -14 -9 -25 -12 -25 -6 0 8
-6 7 -20 0 -14 -8 -20 -8 -20 0 0 8 -6 8 -20 0 -15 -8 -20 -8 -20 1 0 8 -4 8
-15 -1 -12 -10 -15 -10 -15 1 0 11 -2 11 -10 -1 -9 -13 -10 -13 -10 0 0 13 -1
13 -10 0 -9 -13 -10 -13 -10 0 0 13 -1 13 -10 0 -9 -13 -10 -13 -10 0 0 12 -2
12 -9 1 -7 -10 -11 -9 -23 8 -8 11 -18 18 -21 14 -4 -3 -7 1 -7 9 0 9 -8 22
-17 29 -13 11 -15 11 -9 1 7 -11 4 -11 -13 0 -12 7 -21 18 -21 25 0 7 -5 13
-11 13 -8 0 -8 4 0 14 10 12 9 13 -7 9 -23 -5 -38 12 -21 23 8 5 9 3 4 -6 -6
-9 -4 -11 5 -5 9 5 5 14 -14 32 -15 13 -24 28 -21 34 4 5 0 9 -7 9 -9 0 -9 3
2 10 12 7 12 10 1 10 -8 0 -11 6 -7 15 3 9 -1 18 -10 22 -8 3 -14 13 -12 22 1
9 -1 22 -5 29 -5 7 -4 12 2 12 6 0 11 5 11 11 0 5 -6 7 -12 3 -7 -4 -4 2 7 13
11 11 24 18 29 15 5 -2 4 4 -2 14 -6 10 -7 27 -2 40 5 12 6 25 2 29 -3 3 1 3
11 -1 13 -5 17 -1 17 17 0 22 20 65 20 45 0 -6 9 0 21 12 11 12 17 27 14 32
-4 6 1 7 11 3 12 -4 15 -3 10 5 -4 7 -2 12 4 12 17 0 40 26 32 35 -4 5 -1 5 6
1 7 -4 14 -1 17 6 3 8 14 14 25 14 10 0 16 -4 14 -8z m347 -1321 c-10 -9 -11
-8 -5 6 3 10 9 15 12 12 3 -3 0 -11 -7 -18z m-356 -537 c-3 -5 -12 -10 -18
-10 -7 0 -6 4 3 10 19 12 23 12 15 0z"/>
<path d="M15360 5470 c0 -5 5 -10 11 -10 5 0 7 5 4 10 -3 6 -8 10 -11 10 -2 0
-4 -4 -4 -10z"/>
<path d="M14768 4553 c7 -3 16 -2 19 1 4 3 -2 6 -13 5 -11 0 -14 -3 -6 -6z"/>
<path d="M13685 7390 c-3 -6 1 -7 9 -4 18 7 21 14 7 14 -6 0 -13 -4 -16 -10z"/>
<path d="M12079 5553 c-13 -16 -12 -17 4 -4 9 7 17 15 17 17 0 8 -8 3 -21 -13z"/>
<path d="M16065 3540 c-3 -6 1 -7 9 -4 18 7 21 14 7 14 -6 0 -13 -4 -16 -10z"/>
<path d="M10169 3423 c-13 -16 -12 -17 4 -4 9 7 17 15 17 17 0 8 -8 3 -21 -13z"/>
<path d="M7885 1340 c-3 -6 1 -7 9 -4 18 7 21 14 7 14 -6 0 -13 -4 -16 -10z"/>
</g>
</svg>
