<svg xmlns="http://www.w3.org/2000/svg" data-name="Layer 1" viewBox="0 0 512 512" id="basket"><path fill="#00efd1" d="M475.808,193.948H458.324l-.045-.01a9.954,9.954,0,0,0-3.237.01H439.408l-52.993-67.726-15.751,12.324,43.35,55.4H92.475l43.35-55.4-15.751-12.324L67.08,193.948H51.447a9.994,9.994,0,0,0-3.239-.01c-.016,0-.03.007-.045.01H36.192a10,10,0,0,0,0,20h5.151L71.695,399.811C77.855,441.731,110.316,471,150.662,471H355.823c40.347,0,72.808-29.269,78.968-71.188l30.351-185.863h10.665a10,10,0,0,0,0-20ZM415.04,396.67c-.009.055-.018.11-.026.166-4.657,31.891-29,54.164-59.19,54.164H150.663c-30.193,0-54.532-22.273-59.19-54.164-.008-.056-.017-.111-.026-.166L61.608,213.948h383.27Z"></path><path fill="#00acea" d="M148.9 41a53.552 53.552 0 1 0 53.551 53.552A53.612 53.612 0 0 0 148.9 41zm0 87.1a33.552 33.552 0 1 1 33.551-33.551A33.589 33.589 0 0 1 148.9 128.1zM357.59 41a53.552 53.552 0 1 0 53.551 53.552A53.612 53.612 0 0 0 357.59 41zm0 87.1a33.552 33.552 0 1 1 33.551-33.551A33.589 33.589 0 0 1 357.59 128.1zM253.244 260.1a10 10 0 0 0-10 10V394.846a10 10 0 0 0 20 0V270.1A10 10 0 0 0 253.244 260.1zM176.064 260.1a10 10 0 0 0-10 10V394.846a10 10 0 0 0 20 0V270.1A10 10 0 0 0 176.064 260.1zM330.423 260.1a10 10 0 0 0-10 10V394.846a10 10 0 0 0 20 0V270.1A10 10 0 0 0 330.423 260.1z"></path></svg>